<svg class="ht" xmlns:xlink="http://www.w3.org/1999/xlink" version='1.1' xmlns='http://www.w3.org/2000/svg' x='0px' y='0px'
    xml:space='preserve'>
  <symbol id="logo" viewBox="0 0 220 16">
    <g>
      <path fill-rule="evenodd" clip-rule="evenodd" d="M5.8,6.8C5.4,6.9,5.1,6.9,4.7,6.9H2.5V2.8h2.2        c0.4,0,0.7,0,1.1,0.1C6.1,2.9,6.4,3,6.7,3.2c0.2,0.1,0.4,0.3,0.6,0.6C7.4,4,7.5,4.4,7.5,4.8c0,0.4-0.1,0.8-0.2,1.1        C7.1,6.2,6.9,6.4,6.7,6.5C6.4,6.7,6.1,6.8,5.8,6.8z M2.5,9.2h1.7l3.6,6.4h3L6.7,8.9c0.4-0.1,0.8-0.2,1.1-0.4c0.4-0.3,0.8-0.6,1.2-1        c0.3-0.4,0.6-0.8,0.7-1.3C10,5.8,10,5.3,10,4.8c0-0.5-0.1-1-0.2-1.5c-0.1-0.5-0.4-1-0.8-1.4c-0.4-0.4-0.9-0.8-1.5-1        C7,0.6,6.2,0.5,5.2,0.5H0v15.2h2.5V9.2z"
      />
      <rect x="13.1" y="0.5" width="2.5" height="15.2" />
      <path fill-rule="evenodd" clip-rule="evenodd" d="M21.6,13.2V2.9h2.6c1.1,0,2,0.2,2.7,0.6c0.7,0.4,1.2,0.8,1.6,1.3        c0.4,0.5,0.7,1.1,0.8,1.7c0.1,0.6,0.2,1.1,0.2,1.6c0,0.9-0.1,1.6-0.4,2.3c-0.3,0.6-0.7,1.2-1.2,1.6c-0.5,0.4-1.1,0.8-1.8,1     c-0.7,0.2-1.4,0.3-2.2,0.3H21.6z M27.5,15c1-0.4,1.8-1,2.5-1.7c0.7-0.7,1.2-1.5,1.5-2.4C31.9,10,32,9,32,8.1c0-0.5,0-1-0.1-1.5        c-0.1-0.6-0.3-1.1-0.5-1.7c-0.2-0.5-0.5-1.1-0.9-1.6c-0.4-0.5-0.9-1-1.4-1.4c-0.6-0.4-1.3-0.7-2-1c-0.8-0.2-1.7-0.4-2.7-0.4h-5.2    v15.2H24C25.3,15.6,26.5,15.4,27.5,15z"
      />
      <path fill-rule="evenodd" clip-rule="evenodd" d="M86.1,13.2V2.9h2.6c1.1,0,2,0.2,2.7,0.6c0.7,0.4,1.2,0.8,1.6,1.3        c0.4,0.5,0.6,1.1,0.8,1.7C93.9,7.1,94,7.6,94,8.1c0,0.9-0.2,1.6-0.5,2.3c-0.3,0.6-0.7,1.2-1.2,1.6c-0.5,0.4-1.1,0.8-1.8,1        c-0.7,0.2-1.4,0.3-2.2,0.3H86.1z M92,15c1-0.4,1.8-1,2.5-1.7c0.7-0.7,1.2-1.5,1.5-2.4c0.3-0.9,0.5-1.8,0.5-2.8c0-0.5,0-1-0.1-1.5        c-0.1-0.6-0.3-1.1-0.5-1.7c-0.2-0.5-0.5-1.1-0.9-1.6c-0.4-0.5-0.9-1-1.4-1.4c-0.6-0.4-1.3-0.7-2-1c-0.8-0.2-1.7-0.4-2.7-0.4h-5.2      v15.2h4.9C89.8,15.6,91,15.4,92,15z"
      />
      <path fill-rule="evenodd" clip-rule="evenodd" d="M147.2,13.2V2.9h2.6c1.1,0,2,0.2,2.7,0.6c0.7,0.4,1.2,0.8,1.6,1.3        c0.4,0.5,0.6,1.1,0.8,1.7c0.1,0.6,0.2,1.1,0.2,1.6c0,0.9-0.2,1.6-0.4,2.3c-0.3,0.6-0.7,1.2-1.2,1.6c-0.5,0.4-1.1,0.8-1.8,1        c-0.7,0.2-1.4,0.3-2.2,0.3H147.2z M153.1,15c1-0.4,1.8-1,2.5-1.7c0.7-0.7,1.2-1.5,1.5-2.4c0.3-0.9,0.5-1.8,0.5-2.8        c0-0.5,0-1-0.1-1.5c-0.1-0.6-0.3-1.1-0.5-1.7c-0.2-0.5-0.5-1.1-0.9-1.6c-0.4-0.5-0.9-1-1.4-1.4c-0.6-0.4-1.3-0.7-2-1        c-0.8-0.2-1.7-0.4-2.7-0.4h-5.2v15.2h4.9C150.9,15.6,152.1,15.4,153.1,15z"
      />
      <polygon points="44.6,13.2 37,13.2 37,9.1 43.7,9.1 43.7,6.7 37,6.7 37,2.9 44.2,2.9 44.2,0.5 34.6,0.5 34.6,15.6         44.6,15.6   "
      />
      <polygon points="60,11.2 55.8,0.5 52.7,0.5 52.7,15.6 55,15.6 55,4.7 59.2,15.6 60.8,15.6 64.9,4.7 64.9,15.6         67.3,15.6 67.3,0.5 64.1,0.5   "
      />
      <polygon points="80.3,2.9 80.3,0.5 70.7,0.5 70.7,15.6 80.7,15.6 80.7,13.2 73.1,13.2 73.1,9.1 79.8,9.1 79.8,6.7         73.1,6.7 73.1,2.9   "
      />
      <polygon points="169.9,2.9 169.9,0.5 160.2,0.5 160.2,15.6 170.3,15.6 170.3,13.2 162.7,13.2 162.7,9.1 169.4,9.1         169.4,6.7 162.7,6.7 162.7,2.9   "
      />
      <rect x="99.3" y="0.5" width="2.5" height="15.2" />
      <rect x="185.5" y="0.5" width="2.5" height="15.2" />
      <path fill-rule="evenodd" clip-rule="evenodd" d="M109.2,9.7l2.3-5.8l2.3,5.8H109.2z M106.9,15.6l1.4-3.6h6.4        l1.4,3.6h2.8l-6.3-15.2h-2.1l-6.5,15.2H106.9z"
      />
      <path fill-rule="evenodd" clip-rule="evenodd" d="M129.4,5.1c-0.1-0.2-0.2-0.4-0.3-0.6c-0.1-0.2-0.1-0.4-0.1-0.6        c0-0.5,0.1-0.8,0.4-1.1c0.3-0.3,0.6-0.4,1-0.4c0.4,0,0.7,0.1,0.9,0.3s0.3,0.5,0.3,1c0,0.3-0.1,0.5-0.1,0.8        c-0.1,0.2-0.3,0.4-0.4,0.6s-0.4,0.4-0.6,0.5L130,6c-0.1-0.1-0.2-0.2-0.3-0.3C129.6,5.5,129.5,5.3,129.4,5.1z M129,9.2l0.5-0.4        l2.6,3.3l-0.4,0.5c-0.2,0.2-0.4,0.4-0.6,0.6c-0.2,0.2-0.4,0.3-0.7,0.4c-0.4,0.2-1,0.2-1.4,0c-0.2-0.1-0.5-0.3-0.7-0.5        c-0.2-0.2-0.3-0.4-0.5-0.7c-0.1-0.3-0.2-0.6-0.2-0.9c0-0.3,0-0.6,0.2-0.9c0.1-0.3,0.3-0.5,0.4-0.7C128.6,9.6,128.8,9.4,129,9.2z         M134.7,7.3l-1.4,2.8l-2-2.5c0.2-0.2,0.5-0.3,0.7-0.5c0.3-0.3,0.6-0.5,0.8-0.9c0.3-0.3,0.5-0.7,0.6-1.1c0.2-0.4,0.2-0.9,0.2-1.4        c0-0.6-0.1-1.1-0.3-1.5c-0.2-0.4-0.4-0.8-0.7-1.1c-0.3-0.3-0.7-0.5-1.1-0.7c-0.8-0.3-1.8-0.3-2.6,0c-0.4,0.2-0.8,0.4-1.1,0.7        c-0.3,0.3-0.6,0.7-0.8,1.2c-0.2,0.5-0.3,1-0.3,1.6c0,0.8,0.2,1.4,0.4,2c0.2,0.5,0.5,0.9,0.8,1.3c-0.3,0.2-0.6,0.4-0.8,0.6        c-0.3,0.3-0.7,0.6-0.9,1c-0.3,0.4-0.5,0.8-0.6,1.2c-0.2,0.5-0.2,0.9-0.2,1.5c0,0.6,0.1,1.1,0.3,1.6c0.2,0.5,0.4,1,0.8,1.4        c0.3,0.4,0.8,0.8,1.3,1c0.5,0.3,1.2,0.4,1.9,0.4c0.9,0,1.6-0.2,2.2-0.6c0.5-0.4,1-0.9,1.5-1.5l1.4,1.8h2.8l-3-3.7l2.4-4.6H134.7z"
      />
      <path d="M179.3,13c-0.3,0.2-0.5,0.3-0.8,0.4c-0.9,0.3-1.7,0.2-2.5-0.2c-0.5-0.2-0.9-0.6-1.2-1.1l-0.2-0.3l-2,1.8        l0.1,0.2c0.5,0.7,1.2,1.3,2.1,1.6c0.8,0.3,1.7,0.5,2.7,0.5c0.7,0,1.4-0.1,2-0.3c0.6-0.2,1.2-0.5,1.7-0.9c0.5-0.4,0.8-0.9,1.1-1.5
      c0.3-0.6,0.4-1.3,0.4-2c0-0.9-0.2-1.7-0.6-2.3c-0.4-0.5-0.8-1-1.4-1.3c-0.5-0.3-1.1-0.6-1.8-0.7c-0.6-0.2-1.2-0.3-1.6-0.5        c-0.5-0.2-0.9-0.5-1.2-0.7c-0.3-0.3-0.4-0.7-0.4-1.2c0-0.2,0-0.4,0.1-0.6c0.1-0.2,0.2-0.4,0.4-0.6c0.2-0.2,0.4-0.4,0.8-0.5
      c0.3-0.1,0.7-0.2,1.2-0.2c0.5,0,1,0.1,1.4,0.3c0.4,0.2,0.7,0.5,0.9,0.8l0.2,0.3l2-1.9l-0.2-0.2c-0.6-0.7-1.2-1.2-2-1.4        C179.8,0.1,179,0,178.2,0c-0.9,0-1.6,0.1-2.3,0.4c-0.6,0.3-1.2,0.7-1.6,1.1c-0.4,0.4-0.7,0.9-0.9,1.4c-0.2,0.5-0.3,1-0.3,1.5
      c0,1,0.2,1.8,0.6,2.4c0.4,0.6,0.8,1.1,1.4,1.4c0.5,0.4,1.1,0.6,1.8,0.8c0.6,0.2,1.1,0.4,1.7,0.6c0.5,0.2,0.9,0.4,1.2,0.7        c0.3,0.2,0.4,0.6,0.4,1.1c0,0.3-0.1,0.7-0.2,0.9C179.8,12.6,179.6,12.8,179.3,13z"
      />
      <path d="M198.6,9.3h3.1v3.6c-0.4,0.2-0.8,0.4-1.3,0.5c-0.6,0.1-1.2,0.2-1.9,0.2c-0.7,0-1.4-0.1-2.1-0.4        c-0.6-0.3-1.2-0.7-1.7-1.2c-0.5-0.5-0.8-1.1-1.1-1.8c-0.3-0.7-0.4-1.4-0.4-2.2c0-0.8,0.1-1.5,0.4-2.2c0.3-0.7,0.6-1.3,1-1.8
      c0.4-0.5,1-0.9,1.6-1.2c0.6-0.3,1.3-0.4,2.1-0.4c0.7,0,1.4,0.1,2,0.3c0.6,0.2,1.2,0.6,1.8,1.2l0.2,0.2l1.7-1.9L203.9,2        c-0.6-0.6-1.3-1.1-2.2-1.5c-0.9-0.4-2-0.5-3.3-0.5c-1.1,0-2.2,0.2-3.1,0.6c-0.9,0.4-1.8,1-2.4,1.7c-0.7,0.7-1.2,1.5-1.6,2.5
      c-0.4,1-0.6,2-0.6,3.2c0,1.1,0.2,2.1,0.5,3.1c0.4,1,0.9,1.8,1.5,2.5c0.7,0.7,1.5,1.3,2.5,1.8c1,0.4,2.1,0.6,3.3,0.6        c0.4,0,0.9,0,1.4-0.1c0.5-0.1,1-0.1,1.5-0.3c0.5-0.1,0.9-0.3,1.4-0.4c0.5-0.2,0.9-0.4,1.2-0.6l0.1-0.1V6.8h-5.6V9.3z"
      />
      <polygon points="217.5,11.9 210.1,0.4 207.2,0.4 207.2,15.6 209.6,15.6 209.6,4.2 217.2,15.6 220,15.6 220,0.4         217.5,0.4   "
      />
    </g>
  </symbol>

  <symbol id="rect_logo" viewBox="0 0 145 145">
    <g>
      <path fill-rule="evenodd" clip-rule="evenodd" stroke-miterlimit="10" d="M42.9,48.3
      c-0.6,0.1-1.2,0.2-1.9,0.2h-3.9v-7H41c0.6,0,1.3,0,1.9,0.1c0.6,0.1,1.1,0.3,1.5,0.5c0.4,0.2,0.8,0.6,1,1c0.3,0.5,0.4,1.1,0.4,1.8
      c0,0.7-0.1,1.3-0.4,1.8c-0.3,0.5-0.6,0.8-1,1C44,48.1,43.5,48.2,42.9,48.3z M37.1,52.3h3l6.3,10.9h5.3l-7.1-11.4
      c0.7-0.1,1.4-0.4,2-0.7c0.8-0.4,1.5-1,2-1.6c0.6-0.6,1-1.3,1.3-2.1c0.3-0.8,0.5-1.6,0.5-2.4c0-0.8-0.1-1.7-0.4-2.5
      c-0.3-0.9-0.7-1.7-1.3-2.4c-0.6-0.7-1.5-1.3-2.6-1.8c-1.1-0.5-2.4-0.7-4.1-0.7h-9.1v25.6h4.3V52.3z" />
      <path stroke-miterlimit="10" d="M59.8,63.2h-4.3V37.6h4.3V63.2z" />
      <path fill-rule="evenodd" clip-rule="evenodd" stroke-miterlimit="10" d="M70.3,59.1V41.7h4.5
      c1.9,0,3.5,0.3,4.6,0.9c1.2,0.6,2.1,1.4,2.8,2.3c0.7,0.9,1.1,1.8,1.4,2.8c0.3,1,0.4,1.9,0.4,2.7c0,1.5-0.3,2.7-0.8,3.8
      c-0.5,1.1-1.3,2-2.1,2.7c-0.9,0.7-2,1.3-3.2,1.6c-1.2,0.4-2.5,0.5-3.9,0.5H70.3z M80.5,62.1c1.7-0.7,3.2-1.7,4.4-2.9
      c1.2-1.2,2.1-2.6,2.7-4.1c0.6-1.5,0.9-3.1,0.9-4.8c0-0.8-0.1-1.7-0.3-2.6C88,46.9,87.8,46,87.4,45c-0.4-0.9-0.9-1.9-1.6-2.7
      c-0.7-0.9-1.5-1.7-2.5-2.4c-1-0.7-2.2-1.2-3.5-1.6c-1.3-0.4-2.9-0.6-4.7-0.6H66v25.6h8.5C76.7,63.2,78.8,62.8,80.5,62.1z"
      />
      <path stroke-miterlimit="10" d="M111.2,63.2H93.7V37.6h16.8v4.1H98v6.4h11.7v4.1H98v7h13.2V63.2z" />
      <path stroke-miterlimit="10" d="M44.7,70.5H48v15h-2.4V74.7l-4.3,10.8h-1.6l-4.3-10.8v10.8H33v-15
      h3.2l4.3,10.6L44.7,70.5z" />
      <path stroke-miterlimit="10" d="M52.6,72.9v3.8h6.9V79h-6.9v4.1h7.7v2.4H50.1v-15H60v2.4H52.6z" />
      <path fill-rule="evenodd" clip-rule="evenodd" stroke-miterlimit="10" d="M65,72.9h2.7
      c1.1,0,2,0.2,2.7,0.6c0.7,0.4,1.3,0.8,1.6,1.3c0.4,0.5,0.7,1.1,0.8,1.7C73,77.1,73,77.6,73,78c0,0.9-0.2,1.6-0.5,2.3
      c-0.3,0.6-0.7,1.2-1.3,1.6s-1.2,0.8-1.8,1c-0.7,0.2-1.5,0.3-2.3,0.3H65V72.9z M71,84.9c1-0.4,1.9-1,2.6-1.7c0.7-0.7,1.2-1.5,1.6-2.4
      c0.3-0.9,0.5-1.8,0.5-2.8c0-0.5-0.1-1-0.2-1.5c-0.1-0.5-0.3-1.1-0.5-1.7c-0.2-0.5-0.5-1.1-0.9-1.6c-0.4-0.5-0.9-1-1.5-1.4
      c-0.6-0.4-1.3-0.7-2.1-1c-0.8-0.2-1.7-0.3-2.8-0.3h-5.3v15h5C68.8,85.5,70,85.3,71,84.9z" />
      <path stroke-miterlimit="10" d="M77.8,70.5h2.5v15h-2.5V70.5z" />
      <path fill-rule="evenodd" clip-rule="evenodd" stroke-miterlimit="10" d="M87.5,79.7l2.4-5.7
      l2.3,5.7H87.5z M85.2,85.5l1.4-3.6h6.5l1.5,3.6h2.9l-6.4-15h-2.1l-6.6,15H85.2z" />
      <path fill-rule="evenodd" clip-rule="evenodd" stroke-miterlimit="10" d="M103.4,75.2
      c-0.1-0.2-0.2-0.4-0.3-0.6c-0.1-0.2-0.1-0.4-0.1-0.6c0-0.5,0.1-0.8,0.4-1.1c0.3-0.3,0.6-0.4,1-0.4c0.4,0,0.7,0.1,0.9,0.3
      c0.2,0.2,0.3,0.5,0.3,0.9c0,0.3-0.1,0.6-0.2,0.8c-0.1,0.2-0.3,0.4-0.4,0.6c-0.2,0.2-0.4,0.4-0.6,0.5L104,76
      c-0.1-0.1-0.2-0.2-0.3-0.3C103.6,75.6,103.5,75.4,103.4,75.2z M103,79.2l0.5-0.4l2.7,3.3l-0.4,0.5c-0.2,0.2-0.4,0.4-0.6,0.6
      c-0.2,0.2-0.4,0.3-0.7,0.4c-0.5,0.2-1,0.2-1.5,0c-0.2-0.1-0.5-0.3-0.7-0.5c-0.2-0.2-0.4-0.4-0.5-0.7c-0.1-0.3-0.2-0.6-0.2-0.9
      c0-0.3,0.1-0.6,0.2-0.9c0.1-0.3,0.3-0.5,0.4-0.7C102.5,79.5,102.8,79.3,103,79.2z M108.8,77.3l-1.4,2.8l-2-2.5
      c0.2-0.2,0.5-0.3,0.7-0.5c0.3-0.3,0.6-0.5,0.9-0.8c0.3-0.3,0.5-0.7,0.6-1.1c0.2-0.4,0.3-0.9,0.3-1.3c0-0.6-0.1-1.1-0.3-1.5
      c-0.2-0.4-0.4-0.8-0.8-1.1c-0.3-0.3-0.7-0.5-1.1-0.7c-0.8-0.3-1.8-0.3-2.7,0c-0.4,0.2-0.8,0.4-1.1,0.7s-0.6,0.7-0.8,1.2
      c-0.2,0.5-0.3,1-0.3,1.5c0,0.8,0.2,1.4,0.5,2c0.2,0.4,0.5,0.9,0.8,1.3c-0.3,0.2-0.6,0.4-0.8,0.6c-0.4,0.3-0.7,0.6-0.9,1
      c-0.3,0.4-0.5,0.8-0.6,1.2c-0.2,0.4-0.2,0.9-0.2,1.5c0,0.6,0.1,1.1,0.3,1.6c0.2,0.5,0.4,1,0.8,1.4c0.3,0.4,0.8,0.8,1.3,1
      c0.6,0.3,1.2,0.4,1.9,0.4c0.9,0,1.6-0.2,2.3-0.6c0.5-0.4,1.1-0.9,1.5-1.5l1.4,1.8h2.9l-3-3.7l2.5-4.5H108.8z" />
      <path fill-rule="evenodd" clip-rule="evenodd" stroke-miterlimit="10" d="M35.5,94.2h2.7
      c1.1,0,2,0.2,2.7,0.6c0.7,0.4,1.2,0.8,1.6,1.3c0.4,0.5,0.7,1.1,0.8,1.7c0.2,0.6,0.2,1.1,0.2,1.6c0,0.8-0.2,1.6-0.5,2.2
      c-0.3,0.6-0.7,1.2-1.3,1.6c-0.5,0.4-1.1,0.7-1.8,1c-0.7,0.2-1.5,0.3-2.3,0.3h-2.2V94.2z M45.6,96.2c-0.2-0.6-0.5-1.1-0.9-1.6
      c-0.4-0.5-0.9-1-1.5-1.4c-0.6-0.4-1.3-0.7-2.1-1c-0.8-0.3-1.7-0.4-2.8-0.4H33v15h5c1.3,0,2.5-0.2,3.5-0.6c1-0.4,1.9-1,2.6-1.7
      c0.7-0.7,1.2-1.5,1.6-2.4c0.3-0.9,0.5-1.8,0.5-2.8c0-0.5,0-1-0.1-1.5C46,97.3,45.8,96.7,45.6,96.2z" />
      <path stroke-miterlimit="10" d="M51.8,104.4h7.7v2.4H49.3v-15h9.9v2.4h-7.4V98h6.9v2.4h-6.9V104.4z
      " />
      <path stroke-miterlimit="10" d="M68.7,103.6c0.2-0.2,0.2-0.5,0.2-0.9c0-0.5-0.1-0.8-0.4-1.1
      c-0.3-0.3-0.7-0.5-1.2-0.7c-0.5-0.2-1.1-0.4-1.7-0.6c-0.6-0.2-1.3-0.5-1.8-0.8c-0.6-0.4-1-0.8-1.4-1.4c-0.4-0.6-0.6-1.4-0.6-2.4
      c0-0.5,0.1-0.9,0.3-1.4c0.2-0.5,0.5-1,0.9-1.4c0.4-0.4,1-0.8,1.6-1.1c0.7-0.3,1.4-0.4,2.3-0.4c0.8,0,1.6,0.1,2.3,0.3
      c0.8,0.2,1.5,0.7,2,1.4l0.2,0.2l-2,1.8L69.3,95c-0.2-0.4-0.5-0.6-0.9-0.8c-0.4-0.2-0.9-0.3-1.4-0.3c-0.5,0-0.9,0.1-1.3,0.2
      c-0.3,0.1-0.6,0.3-0.8,0.5c-0.2,0.2-0.3,0.4-0.4,0.6c-0.1,0.2-0.1,0.5-0.1,0.6c0,0.5,0.1,0.9,0.4,1.2c0.3,0.3,0.7,0.5,1.2,0.7
      c0.5,0.2,1.1,0.4,1.7,0.5c0.7,0.2,1.2,0.4,1.8,0.7c0.6,0.3,1,0.7,1.4,1.3c0.4,0.5,0.6,1.3,0.6,2.2c0,0.7-0.1,1.4-0.4,2
      c-0.3,0.6-0.7,1.1-1.1,1.5c-0.5,0.4-1,0.7-1.7,0.9c-0.6,0.2-1.3,0.3-2,0.3c-1,0-1.9-0.2-2.7-0.5c-0.9-0.3-1.6-0.9-2.1-1.6l-0.1-0.2
      l2-1.8l0.2,0.3c0.3,0.5,0.7,0.8,1.2,1.1c0.8,0.4,1.6,0.5,2.5,0.2c0.3-0.1,0.6-0.2,0.9-0.4C68.4,104.1,68.6,103.8,68.7,103.6z"
      />
      <path stroke-miterlimit="10" d="M74.8,91.8h2.5v15h-2.5V91.8z" />
      <path stroke-miterlimit="10" d="M88.4,98.2h5.7v7.6l-0.1,0.1c-0.4,0.2-0.8,0.4-1.2,0.6
      c-0.5,0.2-1,0.3-1.4,0.4c-0.5,0.1-1,0.2-1.5,0.3c-0.5,0.1-1,0.1-1.4,0.1c-1.3,0-2.4-0.2-3.4-0.6c-1-0.4-1.8-1-2.5-1.7
      c-0.7-0.7-1.2-1.6-1.6-2.5c-0.3-1-0.5-2-0.5-3c0-1.1,0.2-2.2,0.6-3.1c0.4-1,0.9-1.8,1.6-2.5c0.7-0.7,1.5-1.3,2.5-1.7
      c1-0.4,2-0.6,3.2-0.6c1.4,0,2.5,0.2,3.4,0.5c0.9,0.3,1.6,0.8,2.2,1.4l0.2,0.2l-1.8,1.9L92,95.3c-0.6-0.5-1.2-0.9-1.8-1.1
      c-0.6-0.2-1.3-0.3-2-0.3c-0.8,0-1.5,0.1-2.1,0.4c-0.6,0.3-1.2,0.7-1.6,1.2c-0.5,0.5-0.8,1.1-1.1,1.7c-0.2,0.7-0.4,1.4-0.4,2.2
      c0,0.8,0.1,1.5,0.4,2.2c0.3,0.7,0.7,1.3,1.1,1.8c0.5,0.5,1,0.9,1.7,1.1c0.7,0.3,1.4,0.4,2.1,0.4c0.7,0,1.3-0.1,1.9-0.2
      c0.5-0.1,1-0.3,1.3-0.5v-3.6h-3.2V98.2z" />
      <path stroke-miterlimit="10" d="M108.5,91.8h2.5v15h-2.9l-7.7-11.3v11.3h-2.5v-15h3l7.6,11.3V91.8z
      " />
    </g>
  </symbol>

  <symbol id="search" viewBox="0 0 33.971 33.971">
    <g>
      <path d="M25.478,12.74C25.478,5.705,19.774,0,12.739,0C5.704,0,0,5.705,0,12.74       c0,7.035,5.704,12.739,12.739,12.739C19.774,25.479,25.478,19.775,25.478,12.74z M12.739,22.294c-5.269,0-9.554-4.285-9.554-9.554       c0-5.269,4.286-9.554,9.554-9.554c5.269,0,9.554,4.285,9.554,9.554C22.293,18.009,18.008,22.294,12.739,22.294z M33.038,28.535        l-7.794-7.793c-1.161,1.806-2.698,3.342-4.504,4.503l7.794,7.793c1.244,1.244,3.262,1.244,4.503,0        C34.282,31.796,34.282,29.779,33.038,28.535z"
      />
    </g>
  </symbol>

  <symbol id="arrowTop" viewBox="0 0 60 30">
    <path d="M30,13L0,30L30,0l30,30L30,13z" />
  </symbol>

  <symbol id="arrowRight" viewBox="0 0 20 22">
    <path d="M11.3,11L0,0l20,11L0,22L11.3,11z" />
  </symbol>

  <symbol id="logo-haconiwa" viewBox="0 0 566.9 77.2">
    <g>
      <path d="M185.6,7.5l4.2,1c0.5,1.1,0.8,3.2,0.8,6.2c-4.9,0-12.1,2.2-21.7,6.5l-3.8,10.6V37c0,13.3,0.7,19.9,2.1,19.9
      c3.2,4.7,5.8,7,8,7c5.4,2.9,9.8,4.4,13.1,4.4c3.2,0.1,4.7,0.4,4.7,0.8c0,3.1-0.4,4.6-1.2,4.6c-13.3-0.9-20-2.2-20-3.9
      c-8.8-5.1-13.1-8.4-13.1-10.1l-3.4-6.8c0-7.2,2.3-19,6.8-35.4c5.3-4.8,8.9-7.2,10.7-7.3L185.6,7.5z" />
      <polygon points="535.4,11 513.2,73.2 566.9,73.2  " />
      <polygon points="104.5,11 77.9,73.2 140.5,73.2   " />
      <g>
        <path d="M380.8,21.1c4.7,0,7,0.4,7,1.3v9l0.4,40.1l-6.6,1.2l-0.4-0.2l-2-50.3C379.4,21.4,380,21.1,380.8,21.1z" />
        <path d="M389.1,10.5c0,3.3-2.7,6-6,6c-3.3,0-6-2.7-6-6c0-3.3,2.7-6,6-6C386.4,4.4,389.1,7.1,389.1,10.5z" />
      </g>
      <polygon points="419.7,9.5 418.8,10.6 433.4,72.6 442.9,73 457.5,37.3 472.3,74.4 484.8,73 504.3,8.1 503.7,6.8 
      492.7,7.7 479.8,59.7 461.8,26.9 460.9,26.2 452.1,26.2 450.7,27.2 439.9,58.7 426.9,10.5  " />
      <path d="M245.1,9.5c7.2,1.8,10.8,3.7,10.8,5.6c3.8,5,7,11,9.6,17.8v0.2l0.3,27.9c-1.4,7-2.8,10.5-4.2,10.5l-8.4,2.6
      c-5.3,0-8.9-1.3-10.8-3.8c-8.4-6-12.6-9.9-12.6-11.7c-1.7-4.3-4.3-9.3-7.7-15v-18c2.8-4.8,6.6-9.1,11.5-12.9c2.3-2,4.2-3,5.7-3
      L245.1,9.5z" />
      <polygon points="2.1,0 0,72 9.3,75.1 11.3,50.1 41.2,47 41.2,74.1 51.5,77.2 52.6,34.4 11.3,34.4 12.4,0  " />
      <polygon points="295.5,72.6 294.6,8.6 303.8,8.6 302,24.4 313.1,14.2 325.2,8.6 335.4,9.5 345.6,19.7 348.4,36.4 
      350.2,69.8 338.2,67.9 336.3,33.6 334.4,27.1 329.8,21.6 322.4,21.6 317.8,22.5 313.6,27.1 307.6,32.7 304.8,36.4 303.8,70.7  "
      />
    </g>
  </symbol>

  <symbol id="logo-theWave" viewBox="0 0 566.9 88.3">
    <g>
      <polygon points="0,0 49.5,0 49.5,7.4 28.8,7.4 28.8,88.3 20.4,88.3 20.4,7.4 0,7.4   " />
      <polygon points="77.5,0 86,0 86,38.4 117.2,38.4 117.2,0 125.8,0 125.8,88.3 117.2,88.3 117.2,45.8 86,45.8 
      86,88.3 77.5,88.3   " />
      <polygon points="160.5,0 203.3,0 203.3,7.4 169.1,7.4 169.1,38.5 201.5,38.5 201.5,45.8 169.1,45.8 169.1,80.9 
      203.3,80.9 203.3,88.3 160.5,88.3  " />
      <path d="M337.4,0h8.8l-16,88.3h-8.4l-9.4-58.8l-2.2-16.6c-1.4,10.9-2.5,19.3-3.5,25.2l-8.2,50.2h-8.2L274.3,0h9.5
      l8.2,53.6c0.2,1.6,0.7,5.2,1.4,10.9c0.2,2,0.6,5.3,1.3,9.8l2.2-16c0.3-2.5,0.5-4.5,0.8-5.9L305.8,0h8.4l9,53.6l2.9,20.7l3-20.7
      L337.4,0z" />
      <path d="M388.7,0h8.5l24.6,88.3h-9.6l-7.5-30.6h-23.4l-7.5,30.6h-9.3L388.7,0z M392.9,10.7l-9.8,39.9h19.7
      L392.9,10.7z" />
      <polygon points="439.8,0 449.3,0 468.9,76.9 487.5,0 497,0 472.9,88.3 464.4,88.3  " />
      <polygon points="524,0 566.9,0 566.9,7.4 532.6,7.4 532.6,38.5 565,38.5 565,45.8 532.6,45.8 532.6,80.9 
      566.9,80.9 566.9,88.3 524,88.3  " />
    </g>
  </symbol>

  <!-- ABOUT LIFE -->
  <symbol id="logo-aboutLife" viewBox="0 0 566.9 122.4">
    <g>
      <path d="M73.1,0H4C1.8,0,0,1.8,0,4v22.6v91.7c0,2.2,1.8,4,4,4h69.1c2.2,0,4-1.8,4-4V26.6V4C77.2,1.8,75.3,0,73.1,0z
        M69.1,114.3h-61V30.7h61V114.3z" />
      <g>
        <g>
          <g>
            <path d="M142.4,43.8h-17.9l-3.4,11.5c-0.7,2.4-1.6,3.4-3.5,3.4c-1.8,0-3.3-1.2-3.3-3.3c0-0.2,0.1-0.7,0.2-1.3
            l14.4-49.3c0.9-3,2.1-4.4,4.5-4.4c2.4,0,3.6,1.3,4.5,4.4l14.4,49.3c0.2,0.6,0.2,1.1,0.2,1.3c0,2.1-1.5,3.3-3.3,3.3
            c-1.9,0-2.9-1-3.5-3.4L142.4,43.8z M126.2,37.8h14.5l-7.3-25.5L126.2,37.8z" />
            <path d="M170.3,5.1c0-2.9,1.4-4.3,4.3-4.3h12.8c8.5,0,15.4,5.3,15.4,15.4c0,4.9-2.8,9.6-6.4,11.9
            c4.3,2.5,7.6,7.9,7.6,13.5c0,10.8-7.5,16.6-16.7,16.6h-12.8c-2.9,0-4.3-1.4-4.3-4.3V5.1z M176.9,7v18.3h10.8
            c4.8,0,8.5-2.6,8.5-9c0-6.6-3.9-9.3-8.9-9.3H176.9z M176.9,31.4v20.8h10.5c5.6,0,10.1-3.3,10.1-10.4c0-7.1-4.4-10.3-9.7-10.3
            H176.9z" />
            <path d="M243.4,0c14.7,0,20.5,13.2,20.5,29.6c0,16.3-5.8,29.6-20.5,29.6s-20.5-13.2-20.5-29.6
            C222.9,13.2,228.7,0,243.4,0z M243.4,53c10.3,0,14-10.8,14-23.5c0-12.7-3.7-23.5-14-23.5c-10.3,0-14,10.8-14,23.5
            C229.4,42.3,233.1,53,243.4,53z" />
            <path d="M318,36.9c0,12.2-4.3,22.2-18.1,22.2c-13.9,0-18.1-9.9-18.1-22.2V3.7c0-1.8,1.5-3.3,3.3-3.3
            c1.8,0,3.3,1.5,3.3,3.3v34.1c0,8.6,2.9,15.3,11.5,15.3c8.6,0,11.6-6.6,11.6-15.3V3.7c0-1.8,1.5-3.3,3.3-3.3
            c1.8,0,3.3,1.5,3.3,3.3V36.9z" />
            <path d="M358,6.9v48.5c0,1.8-1.5,3.3-3.3,3.3c-1.8,0-3.3-1.5-3.3-3.3V6.9h-12.2c-1.6,0-3-1.4-3-3c0-1.6,1.4-3,3-3
            h30.9c1.6,0,3,1.4,3,3c0,1.6-1.4,3-3,3H358z" />
            <path d="M417.8,3.8c0-1.8,1.5-3.3,3.3-3.3c1.8,0,3.3,1.5,3.3,3.3v48.3h19c1.7,0,3.1,1.4,3.1,3.1c0,1.7-1.4,3-3.1,3
            H422c-2.9,0-4.3-1.4-4.3-4.3V3.8z" />
            <path d="M471.1,55.4c0,1.8-1.5,3.3-3.3,3.3c-1.8,0-3.3-1.5-3.3-3.3V3.7c0-1.8,1.5-3.3,3.3-3.3
            c1.8,0,3.3,1.5,3.3,3.3V55.4z" />
            <path d="M496.1,55.4c0,1.8-1.5,3.3-3.3,3.3c-1.8,0-3.3-1.5-3.3-3.3V5.1c0-2.9,1.4-4.3,4.3-4.3h21.8c1.6,0,3,1.4,3,3
            c0,1.6-1.4,3.1-3,3.1h-19.5v19.9h17.3c1.6,0,3,1.4,3,3c0,1.6-1.4,3-3,3h-17.3V55.4z" />
            <path d="M540.5,58.3c-2.9,0-4.3-1.4-4.3-4.3V5.1c0-2.9,1.4-4.3,4.3-4.3h22.6c1.6,0,3,1.4,3,3c0,1.6-1.4,3.1-3,3.1
            h-20.3v18.7h17.4c1.6,0,3,1.4,3,3c0,1.6-1.4,3-3,3h-17.4v20.4h21.1c1.6,0,3,1.4,3,3c0,1.6-1.4,3.1-3,3.1H540.5z"
            />
          </g>
        </g>
        <g>
          <g>
            <path d="M149.3,122.4c-8,0-11.2-7.6-11.2-17c0-9.4,3.3-17,11.2-17c6,0,8.9,3.6,9.8,8.4c0,0.2,0.1,0.5,0.1,0.7
            c0,1-0.8,1.7-1.8,1.7c-0.9,0-1.6-0.5-1.9-1.7c-0.7-2.8-2.5-5.7-6.3-5.7c-5.4,0-7.4,6.2-7.4,13.5c0,7.3,1.9,13.5,7.7,13.5
            c3.3,0,5.6-2.8,6.2-5.7c0.3-1.2,1-1.7,1.9-1.7c1,0,1.8,0.8,1.8,1.7c0,0.2,0,0.5-0.1,0.7C158.3,118.6,155.4,122.4,149.3,122.4z"
            />
            <path d="M181.8,88.4c8.4,0,11.8,7.6,11.8,17c0,9.4-3.3,17-11.8,17c-8.4,0-11.8-7.6-11.8-17
            C170,96,173.3,88.4,181.8,88.4z M181.8,118.9c5.9,0,8-6.2,8-13.5c0-7.3-2.1-13.5-8-13.5c-5.9,0-8,6.2-8,13.5
            C173.8,112.7,175.9,118.9,181.8,118.9z" />
            <path d="M208.2,120.2c0,1-0.8,1.9-1.9,1.9c-1,0-1.9-0.8-1.9-1.9V91.4c0-1.7,0.8-2.5,2.4-2.5h12.5
            c0.9,0,1.7,0.8,1.7,1.7c0,0.9-0.8,1.8-1.7,1.8h-11.2v11.4h9.9c0.9,0,1.7,0.8,1.7,1.7c0,0.9-0.8,1.7-1.7,1.7h-9.9V120.2z"
            />
            <path d="M235.4,120.2c0,1-0.8,1.9-1.9,1.9c-1,0-1.9-0.8-1.9-1.9V91.4c0-1.7,0.8-2.5,2.5-2.5h12.5
            c0.9,0,1.7,0.8,1.7,1.7c0,0.9-0.8,1.8-1.7,1.8h-11.2v11.4h9.9c0.9,0,1.7,0.8,1.7,1.7c0,0.9-0.8,1.7-1.7,1.7h-9.9V120.2z"
            />
            <path d="M261.2,121.9c-1.7,0-2.5-0.8-2.5-2.5V91.4c0-1.7,0.8-2.5,2.5-2.5h13c0.9,0,1.7,0.8,1.7,1.7
            c0,0.9-0.8,1.8-1.7,1.8h-11.6v10.7h10c0.9,0,1.7,0.8,1.7,1.7s-0.8,1.7-1.7,1.7h-10v11.7h12.1c0.9,0,1.7,0.8,1.7,1.7
            c0,0.9-0.8,1.8-1.7,1.8H261.2z" />
            <path d="M288.9,121.9c-1.7,0-2.5-0.8-2.5-2.5V91.4c0-1.7,0.8-2.5,2.5-2.5h13c0.9,0,1.7,0.8,1.7,1.7
            c0,0.9-0.8,1.8-1.7,1.8h-11.6v10.7h10c0.9,0,1.7,0.8,1.7,1.7s-0.8,1.7-1.7,1.7h-10v11.7h12.1c0.9,0,1.7,0.8,1.7,1.7
            c0,0.9-0.8,1.8-1.7,1.8H288.9z" />
            <path d="M336,91.4c0-1.7,0.8-2.5,2.4-2.5h7.4c4.9,0,8.9,3,8.9,8.9c0,2.8-1.6,5.5-3.7,6.8c2.5,1.5,4.4,4.5,4.4,7.8
            c0,6.2-4.3,9.5-9.6,9.5h-7.4c-1.6,0-2.4-0.8-2.4-2.5V91.4z M339.8,92.4v10.5h6.2c2.7,0,4.9-1.5,4.9-5.2c0-3.8-2.3-5.3-5.1-5.3
            H339.8z M339.8,106.4v11.9h6c3.2,0,5.8-1.9,5.8-6c0-4.1-2.5-5.9-5.6-5.9H339.8z" />
            <path d="M374.9,108.9h-5v11.3c0,1-0.8,1.9-1.9,1.9c-1,0-1.9-0.8-1.9-1.9V91.4c0-1.7,0.8-2.5,2.4-2.5h5.2
            c6.7,0,10.7,4.1,10.7,10c0,4.3-2.1,7.6-5.8,9.1l5.2,11c0.2,0.4,0.3,0.8,0.3,1.4c0,1-0.8,1.7-1.8,1.7c-0.9,0-1.5-0.5-1.8-1.2
            L374.9,108.9z M369.9,105.2h4.4c4.6,0,6.5-2.8,6.5-6.3c0-3.4-1.9-6.2-6.5-6.2h-4.4V105.2z" />
            <path d="M397.6,121.9c-1.7,0-2.5-0.8-2.5-2.5V91.4c0-1.7,0.8-2.5,2.5-2.5h13c0.9,0,1.7,0.8,1.7,1.7
            c0,0.9-0.8,1.8-1.7,1.8h-11.6v10.7h10c0.9,0,1.7,0.8,1.7,1.7s-0.8,1.7-1.7,1.7h-10v11.7H411c0.9,0,1.7,0.8,1.7,1.7
            c0,0.9-0.8,1.8-1.7,1.8H397.6z" />
            <path d="M439.4,97.9l-4.9,21.8c-0.3,1.7-1.2,2.5-2.5,2.5c-1.4,0-2.1-0.8-2.5-2.5l-6.3-28.3c0-0.1-0.1-0.6-0.1-0.8
            c0-1.1,0.8-1.9,1.9-1.9c0.9,0,1.7,0.7,1.9,1.6l5.1,25.1l4.9-24.3c0.3-1.6,1.1-2.4,2.4-2.4c1.3,0,2.1,0.8,2.4,2.4l4.9,24.3
            l5.1-25.1c0.2-0.9,0.9-1.6,1.9-1.6c1.1,0,1.9,0.8,1.9,1.9c0,0.2,0,0.7-0.1,0.8l-6.3,28.3c-0.4,1.7-1.1,2.5-2.4,2.5
            c-1.4,0-2.2-0.8-2.5-2.5L439.4,97.9z" />
            <path d="M468.8,121.9c-1.7,0-2.5-0.8-2.5-2.5V91.4c0-1.7,0.8-2.5,2.5-2.5h13c0.9,0,1.7,0.8,1.7,1.7
            c0,0.9-0.8,1.8-1.7,1.8h-11.6v10.7h10c0.9,0,1.7,0.8,1.7,1.7s-0.8,1.7-1.7,1.7h-10v11.7h12.1c0.9,0,1.7,0.8,1.7,1.7
            c0,0.9-0.8,1.8-1.7,1.8H468.8z" />
            <path d="M503.7,108.9h-5v11.3c0,1-0.8,1.9-1.9,1.9s-1.9-0.8-1.9-1.9V91.4c0-1.7,0.8-2.5,2.4-2.5h5.2
            c6.7,0,10.7,4.1,10.7,10c0,4.3-2.1,7.6-5.8,9.1l5.2,11c0.2,0.4,0.3,0.8,0.3,1.4c0,1-0.8,1.7-1.8,1.7c-0.9,0-1.5-0.5-1.8-1.2
            L503.7,108.9z M498.7,105.2h4.4c4.6,0,6.5-2.8,6.5-6.3c0-3.4-1.9-6.2-6.5-6.2h-4.4V105.2z" />
            <path d="M523.9,113.8c0-1.1,0.8-1.8,1.7-1.8c1.1,0,1.7,0.6,1.9,1.8c0.4,2.7,2.4,5.1,5.8,5.1c3.4,0,5.9-2.2,5.9-5.5
            c0-2.9-1.2-4.7-4.6-6l-3-1.1c-4.9-1.9-7.6-4.6-7.6-9.5c0-4.9,4.1-8.3,9.2-8.3c5,0,8.3,3.5,9,7.6c0,0,0,0.3,0,0.7
            c0,0.9-0.8,1.7-1.7,1.7c-1.1,0-1.8-0.7-1.9-1.8c-0.3-2.6-2.5-4.7-5.4-4.7c-3.5,0-5.5,2.4-5.5,4.9c0,3,1.4,4.6,5,5.9l2.6,0.9
            c5.1,1.9,7.6,4.6,7.6,9.8c0,5-4.2,9-9.7,9c-5.6,0-8.7-3.9-9.4-8C524,114.4,523.9,114.2,523.9,113.8z" />
          </g>
        </g>
      </g>
    </g>
  </symbol>

  <!-- LIFE MAKERS -->
  <symbol id="logo-lifeMakers" viewBox="0 0 568 63">
    <g>
      <g>
        <polygon points="11.3,9 0,9 0,56.7 34.6,56.7 34.6,46.4 11.3,46.4    " />
        <rect x="45.7" y="9" width="11.3" height="47.7" />
        <polygon points="71.7,56.7 83,56.7 83,38.7 105.3,38.7 105.3,28.3 83,28.3 83,19.3 108.3,19.3 108.3,9 71.7,9    " />
        <polygon points="130.6,37.8 152.6,37.8 152.6,27.6 130.6,27.6 130.6,19.2 155.6,19.2 155.6,9 119.4,9 119.4,56.7 
        156,56.7 156,46.5 130.6,46.5    " />
        <polygon points="284.9,28.9 273,9.6 261.1,9.6 261.1,57.4 272.3,57.4 272.3,28.4 284.5,46.9 285.3,46.9 297.6,28.2 
        297.6,57.4 308.8,57.4 308.8,9.6 296.9,9.6     " />
        <path d="M339.1,9.3l-20.5,48.1h11.6l4.3-10.5h19l4.3,10.5h11.9L349.3,9.3H339.1z M338.7,36.8l5.4-13.2l5.4,13.2H338.7
        z" />
        <polygon points="423,9.6 409.1,9.6 391,29.3 391,9.6 379.6,9.6 379.6,57.4 391,57.4 391,42.8 395.8,37.8 410,57.4 
        423.7,57.4 403.5,30.1     " />
        <polygon points="443.5,38.5 465.5,38.5 465.5,28.3 443.5,28.3 443.5,19.9 468.5,19.9 468.5,9.6 432.3,9.6 432.3,57.4 
        468.8,57.4 468.8,47.2 443.5,47.2    " />
        <path d="M518.1,35.3c1.9-2.6,2.8-5.7,2.8-9.6v-0.1c0-5-1.6-8.9-4.8-11.7c-3.2-2.8-7.6-4.2-13.3-4.2H481v47.8h11.4
        V42.5h7.2l10,14.9h13.3l-11.6-17C514,39.3,516.3,37.6,518.1,35.3z M509.5,26.3c0,1.8-0.6,3.3-1.8,4.4c-1.3,1.1-3.1,1.6-5.5,1.6
        h-9.9V20h9.7c2.4,0,4.3,0.5,5.6,1.5c1.3,1,1.9,2.6,1.9,4.6V26.3z" />
        <path d="M567,37.4c-0.7-1.5-1.7-2.8-3-4c-1.4-1.2-3-2.1-4.8-2.8c-1.6-0.7-3.6-1.4-6.4-2.2c-1.3-0.3-2.4-0.7-3.4-0.9
        c-0.6-0.2-1.1-0.3-1.6-0.4c-1.3-0.4-2.3-0.8-3-1.2c-0.7-0.4-1.1-0.8-1.4-1.3c-0.2-0.5-0.4-1.1-0.4-1.7v-0.2c0-1,0.4-1.7,1.3-2.5
        c0.9-0.7,2.4-1,4.2-1c1.9,0,3.9,0.4,5.8,1.2c2,0.8,4,1.9,6,3.3l0.4,0.3l5.9-8.6l-0.4-0.3c-2.4-1.9-5.1-3.4-8-4.5
        c-2.9-1-6.1-1.5-9.6-1.5c-2.4,0-4.7,0.3-6.8,1c-2,0.7-3.8,1.7-5.3,3c-1.5,1.3-2.7,2.9-3.4,4.6c-0.8,1.7-1.3,3.8-1.3,6v0.2
        c0,2.4,0.4,4.4,1.1,6c0.8,1.7,1.9,3,3.3,4.1c1.3,1.1,3,2,5,2.7c2.2,0.8,4.3,1.4,6.5,1.9c1.8,0.5,3.4,0.9,4.7,1.4
        c1.2,0.4,2.1,0.9,2.8,1.3c0.7,0.4,1,0.9,1.2,1.2c0.2,0.4,0.3,0.9,0.3,1.5v0.2c0,1.2-0.5,2.1-1.5,2.8c-1.1,0.7-2.7,1.1-4.7,1.1
        c-2.6,0-5-0.5-7.1-1.5c-2.3-1-4.4-2.4-6.4-4.1l-0.4-0.3l-6.7,8l0.4,0.3c2.9,2.6,6.1,4.5,9.5,5.7c3.4,1.2,7,1.9,10.6,1.9
        c2.6,0,4.9-0.3,7.1-1c2.2-0.7,4.1-1.6,5.6-2.9c1.5-1.2,2.8-2.8,3.7-4.7c0.9-1.9,1.3-4,1.3-6.4V43C568,40.9,567.7,39,567,37.4z"
        />
      </g>
      <path d="M209.9,0c-17.4,0-31.5,14.1-31.5,31.5c0,17.3,14.1,31.5,31.5,31.5s31.5-14.1,31.5-31.5
      C241.4,14.1,227.3,0,209.9,0z M209.9,56c-13.5,0-24.5-11-24.5-24.5c0-13.5,11-24.5,24.5-24.5c13.5,0,24.5,11,24.5,24.5
      C234.4,45,223.4,56,209.9,56z" />
      <polygon points="209,12.4 212.5,17 212.5,17 214.1,17 214.1,9.3 212.3,9.3 212.3,13.8 208.8,9.3 208.8,9.3 207.2,9.3 
      207.2,17 209,17   " />
      <path d="M212.2,50.1c-0.2-0.2-0.5-0.3-0.8-0.5c-0.3-0.1-0.7-0.3-1-0.3c-0.3-0.1-0.6-0.1-0.8-0.3
      c-0.2-0.1-0.4-0.1-0.5-0.2c-0.1,0-0.2-0.2-0.2-0.2c0-0.1-0.1-0.2-0.1-0.3l0,0c0-0.2,0.1-0.3,0.2-0.4c0.2-0.1,0.4-0.2,0.7-0.2
      c0.3,0,0.6,0.1,0.9,0.2c0.3,0.1,0.6,0.3,1,0.5l0.1,0l1-1.4l-0.1-0.1c-0.4-0.3-0.8-0.5-1.3-0.7c-0.5-0.1-1-0.2-1.6-0.2
      c-0.4,0-0.8,0.1-1.1,0.2c-0.3,0.1-0.6,0.3-0.9,0.5c-0.3,0.2-0.4,0.5-0.6,0.8c-0.1,0.3-0.2,0.6-0.2,1l0,0c0,0.4,0.1,0.7,0.2,0.9
      c0.1,0.3,0.3,0.5,0.5,0.7c0.2,0.2,0.5,0.3,0.8,0.4c0.3,0.1,0.7,0.2,1.1,0.3c0.3,0,0.6,0.1,0.8,0.2c0.2,0.1,0.3,0.1,0.4,0.2
      c0.1,0.1,0.2,0.1,0.2,0.2c0,0.1,0.1,0.1,0.1,0.2v0c0,0.2-0.1,0.3-0.3,0.4c-0.2,0.1-0.4,0.2-0.8,0.2c-0.4,0-0.8-0.1-1.1-0.3
      c-0.4-0.1-0.7-0.4-1.1-0.6l-0.1-0.1l-1.1,1.3l0.1,0.1c0.5,0.4,1,0.8,1.5,0.9c0.6,0.2,1.2,0.3,1.7,0.3c0.4,0,0.8,0,1.1-0.1
      c0.3-0.1,0.7-0.3,0.9-0.5c0.3-0.2,0.4-0.4,0.6-0.8c0.1-0.3,0.2-0.6,0.2-1v0c0-0.3-0.1-0.7-0.2-0.9
      C212.6,50.5,212.4,50.2,212.2,50.1z" />
      <polygon points="227,34.6 227,33.2 230.6,33.2 230.6,31.5 227,31.5 227,30.2 231.1,30.2 231.1,28.5 225.2,28.5 
      225.2,36.2 231.1,36.2 231.1,34.6  " />
      <polygon points="197.1,33.5 195.5,28.6 195.4,28.5 193.9,28.5 192.3,33.5 190.7,28.5 188.8,28.5 191.4,36.2 
      191.4,36.3 193,36.3 194.6,31.5 196.3,36.2 196.3,36.3 197.9,36.3 200.5,28.5 198.6,28.5   " />
      <path d="M215.7,20c-0.7-0.3-4,4.4-6.1,7.5c-1.8,0.2-3.3,1.7-3.3,3.6c0,0.6,0.2,1.2,0.5,1.8c-1.3,3.5-3.3,9-2.7,9.3
      c0.7,0.3,4.1-4.4,6.3-7.6c1.8-0.2,3.1-1.7,3.1-3.5c0-0.6-0.2-1.2-0.4-1.7C214.5,25.9,216.4,20.3,215.7,20z" />
    </g>
  </symbol>

  <!-- スチーブ -->
  <symbol id="logo-schiive" viewBox="0 0 566.9 111.9">
    <g>
      <path d="M99.4,21.7l-82.4,9.1c0.4-3.6,0.8-7.2,1.1-10.8c26.9-2.7,53.8-5.3,80.7-8L99.4,21.7z" />
      <path d="M81.8,32.6c0,0-34.7,48.4-81.8,71l6.4,7.7c0,0,40.9-12.5,86.9-79.1L81.8,32.6z" />
      <polygon points="72.9,71.8 66.2,81 101.5,100.5 107.8,91.9   " />
      <polygon points="243.8,0.7 192.4,16.4 193.9,25.4 246,8.7  " />
      <path d="M230.2,20.6l-9.9,3.1c0,0-2.2,48.7-28.3,81.6l9.7,5.7C201.7,111,226.1,84.9,230.2,20.6z" />
      <path d="M172.2,47.9c0,0,66.5-7.9,102.2-10.8l-1.2,10.3c0,0-66.3,5.1-98.8,11.2L172.2,47.9z" />
      <polygon points="394.5,49.1 330.5,53.3 330.8,64.7 395.1,58.6  " />
      <polygon points="498.6,1.3 486.8,1.3 487,22.6 498.9,22.1  " />
      <polygon points="444.8,31.3 445.4,57.5 456.6,57.5 456.8,30.9  " />
      <path d="M545,25.3l-100.2,6.1l3.9,11.1l7.1-0.5l73.8-4.1c0,0-12.4,36.5-73.8,63.6l5.5,10.4
      C461.3,111.9,538.1,80.3,545,25.3z" />
      <circle cx="538.7" cy="8.1" r="7.2" />
      <circle cx="559.7" cy="7.2" r="7.2" />
    </g>
  </symbol>

  <!-- ABOUT -->
  <symbol id="nav-about" viewBox="0 0 92.7 18.9">
    <g>
      <path d="M5.2,14.3l-1.6,4.1H0l7.8-18h2.7l7.7,18h-3.6L13,14.3H5.2z M6.3,11.6h5.6L9.9,6.7C9.6,5.9,9.3,5.1,9.1,4.3
    C8.8,5.2,8.5,6,8.2,6.8L6.3,11.6z" />
      <path d="M20.8,0.4H27c1.6,0,2.8,0.2,3.6,0.5c0.8,0.3,1.5,0.9,1.9,1.6s0.7,1.6,0.7,2.5c0,0.9-0.3,1.7-0.8,2.4
    c-0.5,0.7-1.3,1.2-2.3,1.5c1.2,0.1,2.1,0.6,2.8,1.4s1.1,1.8,1.1,3c0,0.9-0.2,1.7-0.6,2.4c-0.4,0.7-1,1.3-1.7,1.7
    c-0.5,0.3-1.1,0.5-1.9,0.7c-0.8,0.2-1.6,0.3-2.6,0.3h-6.5V0.4z M24,7.8h3.2c0.4,0,0.7,0,1.2-0.1c0.3-0.1,0.6-0.2,0.8-0.4
    c0.3-0.2,0.5-0.5,0.6-0.8c0.2-0.3,0.2-0.6,0.2-1c0-0.4-0.1-0.8-0.4-1.2c-0.2-0.4-0.6-0.7-1-0.8s-1-0.3-1.8-0.3H24V7.8z M24,15.6
    h3.2c0.9,0,1.6-0.1,2.1-0.3s0.9-0.5,1.2-0.9c0.3-0.4,0.4-0.9,0.4-1.4c0-0.5-0.1-0.9-0.4-1.3c-0.3-0.4-0.6-0.7-1.1-0.9
    c-0.5-0.2-1.1-0.3-2-0.3H24V15.6z" />
      <path d="M56.6,9.6c0,1.4-0.3,2.8-0.9,4.1c-0.8,1.7-1.9,2.9-3.3,3.8c-1.4,0.9-3.2,1.4-5.2,1.4c-3.3,0-5.9-1.1-7.6-3.3
    c-1.4-1.7-2-3.8-2-6.1c0-1.7,0.4-3.2,1.1-4.6c0.6-1.1,1.3-2,2.2-2.7c0.9-0.7,1.8-1.3,2.9-1.6c1-0.3,2.2-0.5,3.5-0.5
    c1.6,0,2.9,0.2,4,0.7c1.1,0.5,2.1,1.2,2.9,2c0.8,0.8,1.4,1.8,1.9,3S56.6,8.1,56.6,9.6z M53.3,9.5c0-1.3-0.3-2.4-0.8-3.4
    c-0.5-1-1.3-1.8-2.3-2.3c-1-0.5-2-0.8-3.2-0.8c-1.1,0-2.1,0.3-3.1,0.8c-1,0.5-1.7,1.3-2.3,2.3c-0.5,1-0.8,2.1-0.8,3.3
    c0,1.3,0.3,2.4,0.8,3.4s1.2,1.8,2.2,2.3c0.9,0.6,2,0.8,3.2,0.8c1.8,0,3.3-0.6,4.5-1.8C52.7,12.9,53.3,11.4,53.3,9.5z"
      />
      <path d="M64,0.4v10.1c0,1,0,1.6,0.1,2c0.1,0.6,0.3,1.1,0.7,1.6c0.4,0.5,0.8,0.9,1.4,1.2c0.6,0.3,1.2,0.4,1.8,0.4
    c0.6,0,1.2-0.1,1.8-0.4c0.6-0.3,1-0.6,1.4-1.1c0.4-0.5,0.6-1,0.7-1.6c0.1-0.4,0.1-1.1,0.1-2.2V0.4h3.2V10c0,1.2,0,2.1-0.1,2.7
    c-0.1,1-0.4,1.8-0.7,2.6c-0.4,0.8-0.9,1.4-1.5,1.9c-0.6,0.5-1.3,1-2.1,1.2c-0.8,0.3-1.7,0.4-2.9,0.4c-1.2,0-2.2-0.2-3.1-0.6
    s-1.7-1-2.4-1.7c-0.6-0.8-1.1-1.6-1.3-2.5c-0.3-0.9-0.4-2.2-0.4-3.8V0.4H64z" />
      <path d="M92.7,0.4v2.9h-5.5v15.1h-3.2V3.3h-5.4V0.4H92.7z" />
    </g>
  </symbol>

  <!--SERVICE-->
  <symbol id="nav-service" viewBox="0 0 106.9 18.9">
    <g>
      <path d="M12.3,1.9L10,4.3C9.7,3.8,9.2,3.4,8.7,3.2C8.2,3,7.6,2.9,7,2.9c-1,0-1.8,0.2-2.3,0.7s-0.8,1-0.8,1.7
    C3.9,5.6,4,6,4.2,6.3c0.2,0.3,0.6,0.6,1.1,0.8C5.6,7.4,6.4,7.6,7.6,8c1.2,0.4,2,0.7,2.5,1c0.7,0.4,1.3,1,1.8,1.7s0.6,1.5,0.6,2.5
    c0,1.6-0.6,3-1.7,4.1c-1.2,1.1-2.8,1.6-4.9,1.6c-1.3,0-2.4-0.2-3.4-0.6c-1-0.4-1.8-1-2.4-1.7l2.4-2.3c0.4,0.6,1,1.1,1.6,1.4
    C4.6,15.9,5.3,16,6,16c1,0,1.7-0.2,2.3-0.7c0.6-0.5,0.8-1.1,0.8-1.7c0-0.5-0.1-0.9-0.3-1.2s-0.5-0.6-1-0.8c-0.2-0.1-1-0.4-2.1-0.8
    c-1.2-0.4-1.9-0.7-2.3-0.9C2.8,9.6,2.2,9.2,1.8,8.8s-0.7-0.9-1-1.5C0.6,6.8,0.5,6.2,0.5,5.5c0-1.4,0.5-2.6,1.4-3.6
    C3.1,0.6,4.9,0,7.1,0c1.1,0,2.1,0.2,3,0.5C10.9,0.8,11.7,1.3,12.3,1.9z" />
      <path d="M15.5,0.5h11.9v2.9h-8.7v4.5h8.1v2.9h-8.1v4.9h9.2v2.9H15.5V0.5z" />
      <path d="M35.5,10.9v7.6h-3.2v-18h5.8c1.3,0,2.2,0.1,3,0.2c0.7,0.1,1.4,0.4,2.1,0.9c0.6,0.4,1.1,1,1.5,1.7
    c0.3,0.7,0.5,1.5,0.5,2.4c0,0.9-0.2,1.7-0.5,2.5c-0.4,0.7-0.9,1.3-1.6,1.7c-0.5,0.3-1.2,0.6-2,0.7l4.8,7.9H42l-4.1-7.6H35.5z
      M35.5,8.1h2.1c1.3,0,2.1,0,2.4-0.1c0.6-0.2,1-0.4,1.4-0.8c0.3-0.4,0.5-0.9,0.5-1.5c0-0.6-0.2-1-0.5-1.4c-0.3-0.4-0.7-0.7-1.3-0.8
    c-0.4-0.1-1.1-0.2-2-0.2h-2.6V8.1z" />
      <path d="M51.1,0.5l4,10.8c0.3,0.7,0.6,1.9,0.9,3.3c0.3-1.3,0.6-2.4,1-3.4L61,0.5h3.5l-7.3,18h-2.7l-7.1-18H51.1z" />
      <path d="M70.8,0.5v18h-3.2v-18H70.8z" />
      <path d="M90.6,2.7L88,4.9c-0.5-0.6-1-1-1.7-1.3c-0.7-0.3-1.4-0.4-2.1-0.4c-1,0-2,0.3-3,0.8c-0.9,0.5-1.7,1.3-2.2,2.3
    s-0.8,2.1-0.8,3.3c0,1.2,0.3,2.3,0.8,3.2c0.5,0.9,1.2,1.7,2.2,2.2s1.9,0.8,3,0.8c1.7,0,3.1-0.7,4.1-2.1l2.8,2
    c-0.7,0.9-1.6,1.7-2.7,2.3c-1.1,0.6-2.4,0.9-4,0.9c-2.1,0-3.9-0.5-5.3-1.4c-1.4-1-2.5-2.2-3.2-3.8c-0.6-1.3-0.9-2.7-0.9-4.2
    c0-1.8,0.4-3.4,1.2-4.8s1.9-2.6,3.3-3.3c1.4-0.8,3-1.2,4.8-1.2c1.1,0,2.1,0.1,3,0.4c0.9,0.3,1.6,0.7,2.2,1.1
    C89.8,1.9,90.1,2.3,90.6,2.7z" />
      <path d="M94.6,0.5h11.9v2.9h-8.7v4.5h8.1v2.9h-8.1v4.9h9.2v2.9H94.6V0.5z" />
    </g>
  </symbol>

  <!--WORKS-->
  <symbol id="nav-works" viewBox="0 0 97.2 18.9">
    <g>
      <path d="M3.6,0.5l2.7,10c0.3,1.3,0.6,2.5,0.8,3.7c0.1-0.7,0.2-1.2,0.3-1.6c0.1-0.6,0.3-1.2,0.6-2l3.2-10h3.1l3.2,10.1
    c0.2,0.7,0.4,1.2,0.5,1.7c0.1,0.5,0.2,1.1,0.4,1.8c0.2-1,0.4-2.2,0.8-3.5l2.7-10.1H25l-5.2,18h-3.2L13.2,7.4
    c-0.2-0.8-0.5-1.8-0.7-3c-0.2,1.1-0.4,2.2-0.7,3.2L8.4,18.5H5.3L0,0.5H3.6z" />
      <path d="M45.6,9.6c0,1.4-0.3,2.8-0.9,4.1c-0.8,1.7-1.9,2.9-3.3,3.8c-1.4,0.9-3.2,1.4-5.2,1.4c-3.3,0-5.9-1.1-7.6-3.3
    c-1.4-1.7-2-3.8-2-6.1c0-1.7,0.4-3.2,1.1-4.6c0.6-1.1,1.3-2,2.2-2.7c0.9-0.7,1.8-1.3,2.9-1.6C33.6,0.2,34.8,0,36,0
    c1.6,0,2.9,0.2,4,0.7c1.1,0.5,2.1,1.2,2.9,2c0.8,0.8,1.4,1.8,1.9,3C45.3,6.8,45.6,8.1,45.6,9.6z M42.2,9.6c0-1.3-0.3-2.4-0.8-3.4
    c-0.5-1-1.3-1.8-2.3-2.3c-1-0.5-2-0.8-3.2-0.8c-1.1,0-2.1,0.3-3.1,0.8s-1.7,1.3-2.3,2.3c-0.5,1-0.8,2.1-0.8,3.3
    c0,1.3,0.3,2.4,0.8,3.4s1.2,1.8,2.2,2.3c0.9,0.6,2,0.8,3.2,0.8c1.8,0,3.3-0.6,4.5-1.8C41.6,12.9,42.2,11.4,42.2,9.6z"
      />
      <path d="M52.8,10.9v7.6h-3.2v-18h5.8c1.3,0,2.2,0.1,3,0.2c0.7,0.1,1.4,0.4,2.1,0.9c0.6,0.4,1.1,1,1.5,1.7
    c0.3,0.7,0.5,1.5,0.5,2.4c0,0.9-0.2,1.7-0.5,2.5c-0.4,0.7-0.9,1.3-1.6,1.7c-0.5,0.3-1.2,0.6-2,0.7l4.8,7.9h-3.9l-4.1-7.6H52.8z
      M52.8,8.1h2.1c1.3,0,2.1,0,2.4-0.1c0.6-0.2,1-0.4,1.4-0.8c0.3-0.4,0.5-0.9,0.5-1.5c0-0.6-0.2-1-0.5-1.4c-0.3-0.4-0.7-0.7-1.3-0.8
    c-0.4-0.1-1.1-0.2-2-0.2h-2.6V8.1z" />
      <path d="M70.3,0.5v7.6h0.2l7.4-7.6h4.3l-8.4,8.3l9,9.7h-4.5l-7.8-8.8h-0.2v8.8h-3.2v-18H70.3z" />
      <path d="M97,1.9l-2.3,2.4c-0.3-0.5-0.8-0.8-1.3-1.1c-0.5-0.2-1.1-0.4-1.8-0.4c-1,0-1.8,0.2-2.3,0.7s-0.8,1-0.8,1.7
    c0,0.4,0.1,0.8,0.3,1.1s0.6,0.6,1.1,0.8c0.4,0.2,1.2,0.5,2.3,0.8c1.2,0.4,2,0.7,2.5,1c0.7,0.4,1.3,1,1.8,1.7s0.6,1.5,0.6,2.5
    c0,1.6-0.6,3-1.7,4.1c-1.2,1.1-2.8,1.6-4.9,1.6c-1.3,0-2.4-0.2-3.4-0.6c-1-0.4-1.8-1-2.4-1.7l2.4-2.3c0.4,0.6,1,1.1,1.6,1.4
    c0.6,0.3,1.3,0.5,2,0.5c1,0,1.7-0.2,2.3-0.7s0.8-1.1,0.8-1.7c0-0.5-0.1-0.9-0.3-1.2c-0.2-0.3-0.5-0.6-1-0.8c-0.2-0.1-1-0.4-2.1-0.8
    c-1.2-0.4-1.9-0.7-2.3-0.9c-0.7-0.3-1.2-0.7-1.6-1.1s-0.7-0.9-1-1.5c-0.2-0.6-0.3-1.2-0.3-1.8c0-1.4,0.5-2.6,1.4-3.6
    C87.8,0.6,89.5,0,91.8,0c1.1,0,2.1,0.2,3,0.5C95.6,0.8,96.4,1.3,97,1.9z" />
    </g>
  </symbol>

  <!--NEWS-->
  <symbol id="nav-news" viewBox="0 0 74 18.9">
    <g>
      <path d="M4.2,0.5l7.2,11.1c0.6,0.9,1.2,2.1,1.7,3.4C13,13.5,13,12.3,13,11.2V0.5h3.2v18H12L4.9,7.6
    C4.7,7.1,4.3,6.5,3.9,5.8C3.6,5.3,3.4,4.6,3.1,3.9c0.1,0.8,0.1,2,0.1,3.6v11H0v-18H4.2z" />
      <path d="M20.7,0.5h11.9v2.9h-8.7v4.5H32v2.9h-8.1v4.9H33v2.9H20.7V0.5z" />
      <path d="M38.9,0.5l2.7,10c0.3,1.3,0.6,2.5,0.8,3.7c0.1-0.7,0.2-1.2,0.3-1.6c0.1-0.6,0.3-1.2,0.6-2l3.2-10h3.1l3.2,10.1
    c0.2,0.7,0.4,1.2,0.5,1.7c0.1,0.5,0.2,1.1,0.4,1.8c0.2-1,0.4-2.2,0.8-3.5L57,0.5h3.3l-5.2,18h-3.2L48.5,7.4c-0.2-0.8-0.5-1.8-0.7-3
    c-0.2,1.1-0.4,2.2-0.7,3.2l-3.4,10.9h-3.1l-5.3-18H38.9z" />
      <path d="M73.9,1.9l-2.3,2.4c-0.3-0.5-0.8-0.8-1.3-1.1c-0.5-0.2-1.1-0.4-1.8-0.4c-1,0-1.8,0.2-2.3,0.7s-0.8,1-0.8,1.7
    c0,0.4,0.1,0.8,0.3,1.1s0.6,0.6,1.1,0.8C67.2,7.4,68,7.6,69.1,8c1.2,0.4,2,0.7,2.5,1c0.7,0.4,1.3,1,1.8,1.7
    c0.4,0.7,0.6,1.5,0.6,2.5c0,1.6-0.6,3-1.7,4.1c-1.2,1.1-2.8,1.6-4.9,1.6c-1.3,0-2.4-0.2-3.4-0.6c-1-0.4-1.8-1-2.4-1.7l2.4-2.3
    c0.4,0.6,1,1.1,1.6,1.4c0.6,0.3,1.3,0.5,2,0.5c1,0,1.7-0.2,2.3-0.7c0.6-0.5,0.8-1.1,0.8-1.7c0-0.5-0.1-0.9-0.3-1.2
    c-0.2-0.3-0.5-0.6-1-0.8c-0.2-0.1-1-0.4-2.1-0.8c-1.2-0.4-1.9-0.7-2.3-0.9c-0.7-0.3-1.2-0.7-1.6-1.1c-0.4-0.4-0.7-0.9-1-1.5
    c-0.2-0.6-0.3-1.2-0.3-1.8c0-1.4,0.5-2.6,1.4-3.6C64.7,0.6,66.4,0,68.6,0c1.1,0,2.1,0.2,3,0.5C72.5,0.8,73.2,1.3,73.9,1.9z"
      />
    </g>
  </symbol>

  <!--COMPANY-->
  <symbol id="nav-company" viewBox="0 0 134.8 18.9">
    <g>
      <path d="M15.7,2.7l-2.6,2.1c-0.5-0.6-1-1-1.7-1.3c-0.7-0.3-1.4-0.4-2.1-0.4c-1,0-2,0.3-3,0.8S4.7,5.2,4.2,6.2
    S3.4,8.4,3.4,9.6c0,1.2,0.3,2.3,0.8,3.2c0.5,0.9,1.2,1.7,2.2,2.2s1.9,0.8,3,0.8c1.7,0,3.1-0.7,4.1-2.1l2.8,2
    c-0.7,0.9-1.6,1.7-2.7,2.3c-1.1,0.6-2.4,0.9-4,0.9c-2.1,0-3.9-0.5-5.3-1.4c-1.4-1-2.5-2.2-3.2-3.8C0.3,12.3,0,10.9,0,9.4
    C0,7.6,0.4,6,1.2,4.6S3.2,2,4.6,1.2s3-1.2,4.8-1.2c1.1,0,2.1,0.1,3,0.4c0.9,0.3,1.6,0.7,2.2,1.1C14.9,1.8,15.3,2.2,15.7,2.7z"
      />
      <path d="M37.6,9.6c0,1.4-0.3,2.8-0.9,4.1c-0.8,1.7-1.9,2.9-3.3,3.8c-1.4,0.9-3.2,1.4-5.2,1.4c-3.3,0-5.9-1.1-7.6-3.3
    c-1.4-1.7-2-3.8-2-6.1c0-1.7,0.4-3.2,1.1-4.6c0.6-1.1,1.3-2,2.2-2.7c0.9-0.7,1.8-1.3,2.9-1.6S26.8,0,28,0c1.6,0,2.9,0.2,4,0.7
    c1.1,0.5,2.1,1.2,2.9,2c0.8,0.8,1.4,1.8,1.9,3S37.6,8.1,37.6,9.6z M34.2,9.5c0-1.3-0.3-2.4-0.8-3.4c-0.5-1-1.3-1.8-2.3-2.3
    c-1-0.5-2-0.8-3.2-0.8c-1.1,0-2.1,0.3-3.1,0.8c-1,0.5-1.7,1.3-2.3,2.3s-0.8,2.1-0.8,3.3c0,1.3,0.3,2.4,0.8,3.4s1.2,1.8,2.2,2.3
    c0.9,0.6,2,0.8,3.2,0.8c1.8,0,3.3-0.6,4.5-1.8C33.6,12.9,34.2,11.4,34.2,9.5z" />
      <path d="M46.2,0.4L50,9.7c0.6,1.4,1,2.7,1.3,4c0.2-0.7,0.3-1.3,0.5-1.7c0.1-0.4,0.4-1.2,0.9-2.4l3.7-9.2H61v18h-3.1
    V7.7c0-1.3,0.1-2.8,0.2-4.4h-0.1c-0.3,1.4-0.8,2.9-1.4,4.4l-4.2,10.8h-2.3l-4.3-11c-0.5-1.2-0.9-2.6-1.2-4.1h-0.1
    c0.1,1.4,0.2,2.9,0.2,4.6v10.6h-3.1v-18H46.2z" />
      <path d="M65.8,0.4h5.8c1.5,0,2.6,0.1,3.4,0.4c1,0.3,1.9,0.9,2.5,1.7c0.6,0.8,1,1.9,1,3.1c0,1.1-0.3,2.1-0.9,3
    c-0.6,0.9-1.4,1.5-2.3,1.8c-0.8,0.3-2,0.4-3.6,0.4H69v7.5h-3.2V0.4z M69,8.2h2.2c0.6,0,1,0,1.2,0c0.5,0,0.8-0.1,1.2-0.2
    c0.3-0.1,0.6-0.3,0.8-0.5c0.2-0.2,0.4-0.5,0.5-0.8c0.1-0.3,0.2-0.6,0.2-1c0-0.6-0.2-1.1-0.5-1.5c-0.3-0.4-0.8-0.7-1.4-0.9
    c-0.4-0.1-1.2-0.2-2.2-0.2H69V8.2z" />
      <path d="M83.9,14.3l-1.6,4.1h-3.6l7.8-18h2.7l7.7,18h-3.6l-1.7-4.1H83.9z M85,11.6h5.6l-1.9-4.8
    c-0.3-0.8-0.6-1.6-0.8-2.4c-0.3,0.9-0.5,1.7-0.9,2.5L85,11.6z" />
      <path d="M103.5,0.4l7.2,11.1c0.6,0.9,1.2,2.1,1.7,3.4c-0.1-1.4-0.1-2.7-0.1-3.7V0.4h3.2v18h-4.1l-7.1-10.9
    c-0.3-0.5-0.6-1.1-1.1-1.8c-0.3-0.5-0.5-1.1-0.8-1.9c0.1,0.8,0.1,2,0.1,3.6v11h-3.2v-18H103.5z" />
      <path d="M128.1,10.7v7.7h-3.2v-7.7l-6.7-10.3h4l3.4,5.5l0.6,0.9c0.1,0.2,0.3,0.6,0.5,1c0.3-0.7,0.6-1.3,1-1.8l3.5-5.6
    h3.8L128.1,10.7z" />
    </g>
  </symbol>

  <!--CONTACT-->
  <symbol id="nav-contact" viewBox="0 0 125.2 18.9">
    <g>
      <path d="M15.7,2.7l-2.6,2.1c-0.5-0.6-1-1-1.7-1.3c-0.7-0.3-1.4-0.4-2.1-0.4c-1,0-2,0.3-3,0.8S4.7,5.2,4.2,6.2
      S3.4,8.4,3.4,9.6c0,1.2,0.3,2.3,0.8,3.2c0.5,0.9,1.2,1.7,2.2,2.2s1.9,0.8,3,0.8c1.7,0,3.1-0.7,4.1-2.1l2.8,2
      c-0.7,0.9-1.6,1.7-2.7,2.3c-1.1,0.6-2.4,0.9-4,0.9c-2.1,0-3.9-0.5-5.3-1.4c-1.4-1-2.5-2.2-3.2-3.8C0.3,12.3,0,10.9,0,9.4
      C0,7.6,0.4,6,1.2,4.6S3.2,2,4.6,1.2s3-1.2,4.8-1.2c1.1,0,2.1,0.1,3,0.4c0.9,0.3,1.6,0.7,2.2,1.1C14.9,1.8,15.3,2.2,15.7,2.7z"
      />
      <path d="M37.8,9.6c0,1.4-0.3,2.8-0.9,4.1c-0.8,1.7-1.9,2.9-3.3,3.8c-1.4,0.9-3.2,1.4-5.2,1.4c-3.3,0-5.9-1.1-7.6-3.3
      c-1.4-1.7-2-3.8-2-6.1c0-1.7,0.4-3.2,1.1-4.6c0.6-1.1,1.3-2,2.2-2.7c0.9-0.7,1.8-1.3,2.9-1.6S27,0,28.3,0c1.6,0,2.9,0.2,4,0.7
      c1.1,0.5,2.1,1.2,2.9,2c0.8,0.8,1.4,1.8,1.9,3C37.6,6.8,37.8,8.1,37.8,9.6z M34.5,9.5c0-1.3-0.3-2.4-0.8-3.4
      c-0.5-1-1.3-1.8-2.3-2.3S29.3,3,28.2,3c-1.1,0-2.1,0.3-3.1,0.8c-1,0.5-1.7,1.3-2.3,2.3s-0.8,2.1-0.8,3.3c0,1.3,0.3,2.4,0.8,3.4
      s1.2,1.8,2.2,2.3c0.9,0.6,2,0.8,3.2,0.8c1.8,0,3.3-0.6,4.5-1.8C33.9,12.9,34.5,11.4,34.5,9.5z" />
      <path d="M46,0.4l7.2,11.1c0.6,0.9,1.2,2.1,1.7,3.4c-0.1-1.4-0.1-2.7-0.1-3.7V0.4h3.2v18h-4.1L46.8,7.5
      c-0.3-0.5-0.6-1.1-1.1-1.8c-0.3-0.5-0.5-1.1-0.8-1.9c0.1,0.8,0.1,2,0.1,3.6v11h-3.2v-18H46z" />
      <path d="M75.3,0.4v2.9h-5.5v15.1h-3.2V3.3h-5.4V0.4H75.3z" />
      <path d="M79.4,14.3l-1.6,4.1h-3.6l7.8-18h2.7l7.7,18h-3.6l-1.7-4.1H79.4z M80.5,11.6h5.6l-1.9-4.8
      c-0.3-0.8-0.6-1.6-0.8-2.4c-0.3,0.9-0.5,1.7-0.9,2.5L80.5,11.6z" />
      <path d="M109.2,2.7l-2.6,2.1c-0.5-0.6-1-1-1.7-1.3c-0.7-0.3-1.4-0.4-2.1-0.4c-1,0-2,0.3-3,0.8
      c-0.9,0.5-1.7,1.3-2.2,2.3s-0.8,2.1-0.8,3.3c0,1.2,0.3,2.3,0.8,3.2c0.5,0.9,1.2,1.7,2.2,2.2s1.9,0.8,3,0.8c1.7,0,3.1-0.7,4.1-2.1
      l2.8,2c-0.7,0.9-1.6,1.7-2.7,2.3c-1.1,0.6-2.4,0.9-4,0.9c-2.1,0-3.9-0.5-5.3-1.4c-1.4-1-2.5-2.2-3.2-3.8c-0.6-1.3-0.9-2.7-0.9-4.2
      c0-1.8,0.4-3.4,1.2-4.8S96.7,2,98,1.2s3-1.2,4.8-1.2c1.1,0,2.1,0.1,3,0.4c0.9,0.3,1.6,0.7,2.2,1.1C108.4,1.8,108.7,2.2,109.2,2.7z"
      />
      <path d="M125.2,0.4v2.9h-5.5v15.1h-3.2V3.3h-5.4V0.4H125.2z" />
    </g>
  </symbol>

  <!-- ITとメディアで暮らしを彩る。 -->
  <symbol id="text-footerLead" viewBox="0 0 357.82 18.32">
    <g>
      <path d="M13.54,16.68A18.43,18.43,0,0,0,13,14.76L10.38,6.12a20.49,20.49,0,0,1-.58-2.3,1.59,1.59,0,0,0-.08.34c-0.14.52-.4,1.56-0.52,2L6.58,14.76a15.67,15.67,0,0,0-.52,1.92H4.52a14.62,14.62,0,0,0-.54-2L0.82,3.76A13,13,0,0,0,0,1.48H2A10.78,10.78,0,0,0,2.4,3.56l2.36,8.68c0.14,0.48.26,1,.54,2.26,0.2-.8.44-1.74,0.6-2.28L8.58,3.44a13.8,13.8,0,0,0,.46-2h1.5a13.87,13.87,0,0,0,.48,2L13.7,12.2c0.12,0.44.2,0.74,0.6,2.3l0.54-2.3L17.2,3.56a12.26,12.26,0,0,0,.38-2.08h2a15.43,15.43,0,0,0-.78,2.28L15.62,14.7a15.71,15.71,0,0,0-.52,2H13.54Z"
      />
      <path d="M37.68,16.82a13.08,13.08,0,0,0-2.24-.14H29.58c-1,0-1.52,0-2.2.06a13.81,13.81,0,0,0,.16-2.38V3.7a14.79,14.79,0,0,0-.16-2.28c0.7,0,1.24.06,2.2,0.06h5.7a14.91,14.91,0,0,0,2.24-.14V3a14,14,0,0,0-2.24-.14H29.12V8h5.26a15.64,15.64,0,0,0,2.24-.14V9.54a13.62,13.62,0,0,0-2.24-.14H29.12v5.88h6.34a14.86,14.86,0,0,0,2.22-.14v1.68Z"
      />
      <path d="M48.44,16.68c-0.88,0-1.5,0-2.2.06a12.37,12.37,0,0,0,.18-2.48V3.56a11.61,11.61,0,0,0-.16-2.12c0.62,0,1,0,2.18,0H52.7c2.9,0,4.52,1.32,4.52,3.68a3.38,3.38,0,0,1-1.08,2.68,4,4,0,0,1-1.58.8,3.7,3.7,0,0,1,1.94.84,3.76,3.76,0,0,1,1.24,3c0,2.68-1.76,4.2-4.82,4.2H48.44ZM52.68,8c1.86,0,3-1,3-2.66s-1-2.5-3-2.5H48V8h4.72ZM48,15.32h4.82c2.18,0,3.34-1,3.34-3s-1.16-3-3.38-3H48v6Z"
      />
      <path d="M71,0.8a34.8,34.8,0,0,0,1.5,6.62c1.18-.48,1.74-0.7,4.84-1.78a10.73,10.73,0,0,0,1.28-.52l0.6,1.52a46,46,0,0,0-6,1.94c-3.42,1.36-4.9,2.68-4.9,4.34,0,1.82,1.54,2.52,5.46,2.52a19.85,19.85,0,0,0,5.72-.68l0.16,1.66a10.4,10.4,0,0,0-1.48.12,40.1,40.1,0,0,1-4.42.26,13.62,13.62,0,0,1-4.44-.54A3.32,3.32,0,0,1,66.78,13a4.33,4.33,0,0,1,1.78-3.4A12.44,12.44,0,0,1,71.18,8a40.68,40.68,0,0,1-1.46-5.6,6.68,6.68,0,0,0-.34-1.26Z"
      />
      <path d="M102.1,1.9a5.62,5.62,0,0,0-.62,1.22A32.67,32.67,0,0,1,98.54,9a51.33,51.33,0,0,1,4.6,4.3L102,14.5a28.64,28.64,0,0,0-4.36-4.34,23.89,23.89,0,0,1-8,7,3.56,3.56,0,0,0-1-1.2,21.3,21.3,0,0,0,8-6.68,37.9,37.9,0,0,0-5.38-3.62l1-1.06A57.35,57.35,0,0,1,97.36,8a27.45,27.45,0,0,0,2.36-4.66,8.72,8.72,0,0,0,.7-2.12Z"
      />
      <path d="M121.22,8.08A18.63,18.63,0,0,1,121,10.2a7.87,7.87,0,0,1-2.7,5.28,11.76,11.76,0,0,1-3.52,2,3.5,3.5,0,0,0-.94-1.3c2.62-.84,4.24-2.12,5.06-3.94a11.44,11.44,0,0,0,.8-4.14h-5.42a18.36,18.36,0,0,0-2.3.1V6.7a14.4,14.4,0,0,0,2.32.12H126a14.4,14.4,0,0,0,2.32-.12V8.18a18.36,18.36,0,0,0-2.3-.1h-4.8ZM114,1.74a11.09,11.09,0,0,0,2.3.14h6.46a11.91,11.91,0,0,0,2.3-.14V3.26a16.08,16.08,0,0,0-2.28-.1h-6.5a16.08,16.08,0,0,0-2.28.1V1.74Zm12.48,0.62a14.15,14.15,0,0,1,1.6,2.9L127,5.7a12.31,12.31,0,0,0-1.56-2.92Zm2-.82a13.55,13.55,0,0,1,1.6,2.88L129,4.88a12.15,12.15,0,0,0-1.58-2.94Z"
      />
      <path d="M149,5.32a2.58,2.58,0,0,0-.48.46,33.45,33.45,0,0,1-4,3.52v6.76a10.68,10.68,0,0,0,.1,1.76H143a11.47,11.47,0,0,0,.08-1.74V10.14A23.32,23.32,0,0,1,137,12.9a3.69,3.69,0,0,0-.7-1.2,19.74,19.74,0,0,0,4.64-1.76,22,22,0,0,0,5.72-4.16,6.5,6.5,0,0,0,1.12-1.3Z"
      />
      <path d="M165.12,5.52a7.24,7.24,0,0,0-.08,1.4c-0.06,3.34-.62,5.32-2,7a10.9,10.9,0,0,1-5.12,3.46,3.91,3.91,0,0,0-.92-1.34,9.4,9.4,0,0,0,3.66-1.84c2.12-1.7,2.9-3.74,2.9-7.64a5.28,5.28,0,0,0-.08-1.08h1.62ZM173,3a3.6,3.6,0,0,0-.48.8,12,12,0,0,1-5.84,5.7,3.93,3.93,0,0,0-1-1.14,8.66,8.66,0,0,0,3.16-1.9,10.6,10.6,0,0,0,2.24-3H159.76a19.3,19.3,0,0,0-2.36.1V2a14.65,14.65,0,0,0,2.38.14h10.74a3.67,3.67,0,0,0,1.7-.14Z"
      />
      <path d="M180.82,3.56l0.72,0c0.28,0,.52,0,1.14-0.06C185.06,3.34,191.46,3,194,2.86a19.11,19.11,0,0,0,2.38-.22l0.12,1.48a8.4,8.4,0,0,0-2.24.28,9.85,9.85,0,0,0-3.84,2A6.12,6.12,0,0,0,188,11a3.92,3.92,0,0,0,2.8,3.7,10.24,10.24,0,0,0,3,.64H194L193.74,17l-0.62-.12a10.1,10.1,0,0,1-4.32-1.54,4.84,4.84,0,0,1-2.22-4.08c0-2.32,1.36-4.52,3.74-6.14A13.11,13.11,0,0,1,192.22,4a38.78,38.78,0,0,1-4.4.44,58.87,58.87,0,0,0-6.9.66Zm13.24,2.3a14.15,14.15,0,0,1,1.84,2.8l-1,.52a12.32,12.32,0,0,0-1.8-2.84ZM196,4.92a14.14,14.14,0,0,1,1.84,2.8l-1,.52A13,13,0,0,0,195,5.4Z"
      />
      <path d="M209.7,8.78c-0.54,0-1.08,0-1.6.06a10,10,0,0,0,.08-1.34V5.08a10.56,10.56,0,0,0-.08-1.38,14.26,14.26,0,0,0,1.6.06h9.52a14,14,0,0,0,1.6-.06c0,0.42-.06.86-0.06,1.38V7.5c0,0.5,0,.92.06,1.34-0.52,0-1.06-.06-1.62-0.06h-5.4a8.33,8.33,0,0,1-.7,1h8.26a14.82,14.82,0,0,0,2.06-.12V11a15.23,15.23,0,0,0-2.06-.12h-3.18A7.56,7.56,0,0,0,219.92,12a15.63,15.63,0,0,0,3.88,1.34,6.81,6.81,0,0,0-.74,1.08,17,17,0,0,1-2.88-1.16v3.26a12.43,12.43,0,0,0,.12,1.72H219V17.36h-9v0.88H208.8a13.1,13.1,0,0,0,.12-1.72v-3.2a17,17,0,0,1-2.84,1.34,2.75,2.75,0,0,0-.76-1,13.84,13.84,0,0,0,5.42-2.78h-3.22a14.72,14.72,0,0,0-2,.12V9.7a14.33,14.33,0,0,0,2,.12h4.28a7,7,0,0,0,.76-1H209.7Zm1.18-7.62A6.79,6.79,0,0,0,210.8,0h1.36a6.49,6.49,0,0,0-.08,1.16V1.38h4.62V1.16A6.69,6.69,0,0,0,216.62,0H218a6.5,6.5,0,0,0-.08,1.18v0.2h3.34a14.14,14.14,0,0,0,2-.12V2.54a11.31,11.31,0,0,0-2-.16H217.9c0,0.42,0,.64.08,1h-1.34a6.21,6.21,0,0,0,.06-1h-4.62a5.85,5.85,0,0,0,.06,1H210.8a4.79,4.79,0,0,0,.06-1h-3.2a14.11,14.11,0,0,0-2,.14V1.24a11.63,11.63,0,0,0,2,.14h3.2V1.16ZM209.3,5.82h10.34V4.7H209.3V5.82Zm0,2h10.34V6.7H209.3V7.86Zm0.76,6.34h9V12.92h-9V14.2Zm0,2.18h9V15.12h-9v1.26Zm2.12-5.54A12,12,0,0,1,210.9,12h7.2a14.32,14.32,0,0,1-1.32-1.12h-4.6Z"
      />
      <path d="M235.3,4.56a16.87,16.87,0,0,0-.46,2.2c-0.48,2.9-.52,3-0.58,3.5a2.3,2.3,0,0,1-.08.46l0,0a5.64,5.64,0,0,1,.62-0.6,9.91,9.91,0,0,1,5.78-1.72c3.26,0,5.36,1.52,5.36,3.86a4.28,4.28,0,0,1-1.8,3.44,8.3,8.3,0,0,1-5,1.32,16.6,16.6,0,0,1-3.5-.36l-1.6-.4a3.08,3.08,0,0,0,0-.38,4.66,4.66,0,0,0-.14-1.24,14.2,14.2,0,0,0,5.1,1c3.3,0,5.4-1.32,5.4-3.36,0-1.64-1.44-2.6-3.88-2.6a9.69,9.69,0,0,0-5.6,1.74,3.48,3.48,0,0,0-.8.82l-1.56,0c0.06-.36.08-0.54,0.16-1.18,0.2-1.52.56-3.84,0.84-5.52a6.84,6.84,0,0,0,.14-1.06Zm0.88-3.48A24.11,24.11,0,0,0,243,3.3L242.4,4.7a30.93,30.93,0,0,1-3.9-1.14,22.36,22.36,0,0,1-3.06-1.26Z"
      />
      <path d="M258.54,1.2a30.53,30.53,0,0,0-.26,4.22c-0.08,2.4-.14,5.12-0.14,6,0,0.24,0,.74,0,1.2a3.14,3.14,0,0,0,.94,2.4,3.77,3.77,0,0,0,2.5.78A5.75,5.75,0,0,0,267,12.34a11.9,11.9,0,0,0,1-3.14,5.65,5.65,0,0,0,1.44,1,12.16,12.16,0,0,1-2.22,4.54,7,7,0,0,1-5.64,2.5,4.74,4.74,0,0,1-3.76-1.4c-0.82-.94-1.1-2-1.1-4.1,0-1.34,0-1.84.18-8.14,0-.6,0-1,0-1.3a6.2,6.2,0,0,0-.08-1.06h1.74Z"
      />
      <path d="M283.3,3.34a8.51,8.51,0,0,0,1-2.74l1.6,0.28A4.25,4.25,0,0,0,285.34,2c-0.26.64-.52,1.18-0.62,1.36l0.42,0a28.14,28.14,0,0,0,6.3-.76l0.12,1.36a6.25,6.25,0,0,0-.8.1,64.56,64.56,0,0,1-6.6.52,14.83,14.83,0,0,1-1.8,2.84c-0.2.24-.6,0.7-0.68,0.76l-0.26.2a0,0,0,0,1,0,0v0a0.15,0.15,0,0,0,0,.06c0.72-.56.72-0.56,0.92-0.7a5.32,5.32,0,0,1,3-1A2.43,2.43,0,0,1,288,9c1.46-.58,2.6-1,3.48-1.32a4.39,4.39,0,0,0,1.36-.58l0.64,1.4a33.24,33.24,0,0,0-5.34,1.76c0,0.52,0,.72,0,1.22,0,0.26,0,.7,0,1.1s0,0.72,0,.9a4.34,4.34,0,0,0,0,.72l-1.36,0A28.59,28.59,0,0,0,287,11.3a5.12,5.12,0,0,0,0-.6c-2.72,1.28-3.76,2.22-3.76,3.42s1.24,1.9,4.06,1.9a16.75,16.75,0,0,0,5.34-.78l0.18,1.54a7.88,7.88,0,0,0-.8.1,31.06,31.06,0,0,1-4.86.4c-3.58,0-5.32-1-5.32-3.08,0-1.1.68-2.14,2-3.16a15.53,15.53,0,0,1,3-1.6,1.5,1.5,0,0,0-1.58-1.58A7.51,7.51,0,0,0,280.76,10a6.62,6.62,0,0,0-1.54,1.66l-1.12-1.12a19.9,19.9,0,0,0,4.48-5.72l0.18-.3a2.21,2.21,0,0,1-.38,0l-2.94-.06h-0.32l-0.44,0,0-1.38a28,28,0,0,0,4.28.22h0.32Z"
      />
      <path d="M304.14,10.2a12,12,0,0,0-1.8.12V9a8.14,8.14,0,0,0,1.82.12h2.5V8.76a7.16,7.16,0,0,0-.1-1.5h1.38a7,7,0,0,0-.1,1.5V9.08H310a9.3,9.3,0,0,0,1.76-.1V10.3a10.36,10.36,0,0,0-1.78-.1h-1.88a10.2,10.2,0,0,0,3.46,3.38,6,6,0,0,0-.7,1.08,10.11,10.11,0,0,1-3.06-3.56c0,0.38,0,.38,0,0.88,0,0.18,0,.38,0,0.6s0,0.46,0,.56V16.3a14,14,0,0,0,.12,2h-1.42a14.61,14.61,0,0,0,.12-2v-3c0-.08,0-0.32,0-0.66,0-.14,0-0.34,0-0.58a5.62,5.62,0,0,1,0-.82,14.52,14.52,0,0,1-3.88,4.88A4.27,4.27,0,0,0,302,15a14.44,14.44,0,0,0,4.32-4.78h-2.18ZM312,1.28l-1.34.4a42.22,42.22,0,0,1-8,1.56,4.43,4.43,0,0,0-.56-1.16A31.54,31.54,0,0,0,309.3.88,8.05,8.05,0,0,0,311,.26ZM303.84,4a16.71,16.71,0,0,1,1.32,3l-1.08.46a11.43,11.43,0,0,0-1.32-3.06Zm3.26,2.78A11.27,11.27,0,0,0,306,3.6L307,3.28a13.64,13.64,0,0,1,1.14,3.12Zm1.76,0.36a14.54,14.54,0,0,0,2-4.32L312,3.36a19.44,19.44,0,0,1-2.18,4.2Zm11.44,5s-0.62.58-1.72,1.66a23.33,23.33,0,0,1-3.26,2.54,21.23,21.23,0,0,1-3.64,1.84A4,4,0,0,0,310.8,17a19,19,0,0,0,6.7-4,8.68,8.68,0,0,0,1.64-1.92Zm-0.6-5.58c-0.1.08-.1,0.08-1.56,1.42a20.83,20.83,0,0,1-5.22,3.48,4.37,4.37,0,0,0-.8-1.18,16.23,16.23,0,0,0,5.44-3.42,5.85,5.85,0,0,0,1.06-1.24ZM319,1.34l-0.16.14a4.3,4.3,0,0,0-.32.3c-0.28.3-1.2,1.18-1.52,1.46a20.86,20.86,0,0,1-3.9,2.66,3.43,3.43,0,0,0-.82-1.1,14.55,14.55,0,0,0,4.54-3.1,4.64,4.64,0,0,0,1-1.24Z"
      />
      <path d="M330.58,1.9a9.22,9.22,0,0,0,1.88.12c1.66,0,4.32-.12,6.12-0.26a2,2,0,0,0,1-.22l0.84,1.1a3.7,3.7,0,0,0-1,.84,51.28,51.28,0,0,1-6.58,5.68l0,0.06A10.14,10.14,0,0,1,337.72,8c3.34,0,5.48,1.64,5.48,4.2,0,3.12-2.9,5.18-7.34,5.18-2.82,0-4.44-1-4.44-2.88,0-1.34,1.24-2.34,2.9-2.34a4,4,0,0,1,3.3,1.64,5.73,5.73,0,0,1,.92,1.92c2.1-.58,3.2-1.8,3.2-3.5,0-1.92-1.6-3.06-4.3-3.06A12.84,12.84,0,0,0,329,12.56l-0.9-1.28a22.3,22.3,0,0,0,2.8-2c2.14-1.7,5.3-4.48,6.68-5.84l0.28-.28L338,3,338,3l0,0-0.18,0c-0.64.12-3,.26-6.08,0.36a9.82,9.82,0,0,0-1.08.1Zm3.76,11.38a1.3,1.3,0,0,0-.82,2.46,5.11,5.11,0,0,0,2.24.46,7.21,7.21,0,0,0,1.46-.14C336.78,14.24,335.78,13.28,334.34,13.28Z"
      />
      <path d="M357.82,15.1a3,3,0,1,1-3-3A3,3,0,0,1,357.82,15.1Zm-4.86,0a1.86,1.86,0,1,0,1.86-1.86A1.87,1.87,0,0,0,353,15.1Z" />
    </g>
  </symbol>
</svg>