<?xml version="1.0" encoding="utf-8"?>
<!-- Generator: Adobe Illustrator 22.0.1, SVG Export Plug-In . SVG Version: 6.00 Build 0)  -->
<svg version="1.1" id="图层_1" xmlns="http://www.w3.org/2000/svg" xmlns:xlink="http://www.w3.org/1999/xlink" x="0px" y="0px"
	 viewBox="0 0 140 140" style="enable-background:new 0 0 140 140;" xml:space="preserve">
<style type="text/css">
	.st0{fill:none;stroke:#1B1B1B;}
	.st1{fill:#1B1B1B;}
	.st2{fill:none;}
	.st3{fill:none;stroke:#222222;stroke-width:2;}
</style>
<g>
	<desc>Created with Snap</desc>
	<path class="st0" d="M69.5,8H133v125.9H7V8H69.5"/>
	<circle id="circlePath" class="st1" cx="69.5" cy="8" r="2.8"/>
	<g id="loopBase">
		<path id="loopBasePath" class="st2" d="M69.5,8H133v125.9H7V8H69.5"/>
	</g>
	<path id="drawingPath" class="st3" d="M69.5,8C70,8,133,8,133,8v125.9H7V8H69.5"/>
	<g>
		<g>
			<path d="M63.7,60h-4.2V43.7c0-1.3,0.1-3,0.2-4.9h-0.1c-0.3,1.1-0.5,1.9-0.7,2.4L51.5,60h-2.9l-7.6-18.7c-0.2-0.6-0.4-1.4-0.7-2.5
				h-0.1c0.1,1,0.1,2.7,0.1,4.9V60h-3.9V34.8h5.9l6.6,16.8c0.5,1.3,0.8,2.3,1,2.9h0.1c0.4-1.3,0.8-2.3,1.1-3L58,34.8h5.7V60z"/>
			<path d="M74.5,60h-4.3V34.8h4.3V60z"/>
			<path d="M102.4,60h-4.6L85.8,41.5c-0.3-0.5-0.6-1-0.8-1.5h-0.1c0.1,0.5,0.1,1.7,0.1,3.5V60h-4V34.8h4.9l11.7,18.1
				c0.5,0.8,0.8,1.3,1,1.5h0.1c-0.1-0.7-0.2-1.8-0.2-3.4V34.8h4V60z"/>
		</g>
		<g>
			<path d="M54.9,69.3l-3.7,13.5h-2.5l-2.6-9.5c-0.1-0.4-0.2-0.8-0.2-1.3h0c0,0.4-0.1,0.9-0.2,1.3L43,82.9h-2.6l-3.8-13.5h2.5
				l2.5,9.9c0.1,0.4,0.2,0.9,0.2,1.3h0c0-0.3,0.1-0.8,0.3-1.3l2.8-9.9h2.3l2.6,10c0.1,0.3,0.2,0.7,0.2,1.2h0c0-0.3,0.1-0.7,0.2-1.2
				l2.4-10H54.9z"/>
			<path d="M64.5,82.9h-7.6V69.3h7.3v1.9h-5.1v3.8h4.7V77h-4.7v4h5.4V82.9z"/>
			<path d="M67.1,82.9V69.3h4.3c1.3,0,2.3,0.3,3.1,0.9c0.8,0.6,1.1,1.3,1.1,2.2c0,0.8-0.2,1.4-0.7,2s-1,1-1.8,1.2v0
				c0.9,0.1,1.7,0.5,2.2,1c0.6,0.6,0.8,1.3,0.8,2.3c0,1.2-0.5,2.1-1.4,2.8s-2.1,1.1-3.5,1.1H67.1z M69.3,71.1V75h1.5
				c0.8,0,1.4-0.2,1.8-0.6c0.4-0.4,0.7-0.9,0.7-1.6c0-1.2-0.8-1.7-2.3-1.7H69.3z M69.3,76.8v4.3h1.9c0.8,0,1.5-0.2,1.9-0.6
				c0.5-0.4,0.7-0.9,0.7-1.6c0-1.4-1-2.1-2.9-2.1H69.3z"/>
			<path d="M99.2,82.9l-1.2-1.3c-0.3,0.2-0.6,0.5-0.9,0.6c-0.3,0.2-0.7,0.4-1,0.5c-0.4,0.1-0.8,0.2-1.1,0.3
				c-0.4,0.1-0.8,0.1-1.2,0.1c-0.7,0-1.3-0.1-1.8-0.3c-0.5-0.2-1-0.4-1.4-0.8c-0.4-0.3-0.7-0.7-0.9-1.2s-0.3-1-0.3-1.5
				c0-1.6,1-2.9,3.1-3.9c-1-1.2-1.4-2.2-1.4-3.1c0-0.5,0.1-0.9,0.3-1.3c0.2-0.4,0.4-0.7,0.8-1c0.3-0.3,0.7-0.5,1.2-0.7
				c0.5-0.2,1-0.2,1.5-0.2c0.5,0,1,0.1,1.4,0.2c0.4,0.1,0.8,0.3,1.1,0.6s0.5,0.6,0.7,0.9c0.2,0.4,0.2,0.7,0.2,1.2
				c0,0.4-0.1,0.8-0.2,1.1c-0.1,0.3-0.3,0.6-0.5,0.9c-0.2,0.3-0.5,0.6-0.9,0.8c-0.4,0.3-0.8,0.5-1.4,0.8c0.5,0.5,1,1.1,1.5,1.6
				c0.5,0.5,1,1.1,1.5,1.6c0.1-0.2,0.3-0.4,0.4-0.7c0.1-0.3,0.2-0.5,0.3-0.8c0.1-0.3,0.1-0.6,0.2-0.9s0.1-0.6,0.1-0.9h1.9
				c0,1.7-0.5,3.2-1.6,4.5c0.3,0.3,0.6,0.7,1.1,1.1s0.9,1,1.5,1.6H99.2z M96.8,80.4c-0.7-0.8-1.9-2-3.5-3.7
				c-0.7,0.4-1.2,0.7-1.5,1.2c-0.3,0.4-0.5,0.9-0.5,1.4c0,0.3,0.1,0.6,0.2,0.9c0.1,0.3,0.3,0.5,0.5,0.7c0.2,0.2,0.5,0.3,0.8,0.4
				c0.3,0.1,0.6,0.2,0.9,0.2C95,81.4,96,81.1,96.8,80.4z M96.1,72.2c0-0.2,0-0.4-0.1-0.6c-0.1-0.2-0.2-0.3-0.3-0.5
				c-0.1-0.1-0.3-0.2-0.5-0.3c-0.2-0.1-0.4-0.1-0.6-0.1c-0.3,0-0.5,0-0.7,0.1c-0.2,0.1-0.4,0.2-0.6,0.3c-0.2,0.1-0.3,0.3-0.4,0.5
				c-0.1,0.2-0.1,0.4-0.1,0.7c0,0.6,0.4,1.3,1.2,2.2C95.4,73.9,96.1,73.1,96.1,72.2z"/>
		</g>
		<g>
			<path d="M36.6,106V92.4h3.9c5,0,7.5,2.2,7.5,6.6c0,2.1-0.7,3.8-2.1,5c-1.4,1.3-3.2,1.9-5.6,1.9H36.6z M38.9,94.3v9.7h1.8
				c1.6,0,2.8-0.4,3.7-1.3c0.9-0.9,1.3-2.1,1.3-3.7c0-3.2-1.6-4.8-4.9-4.8H38.9z"/>
			<path d="M58.3,106h-7.6V92.4H58v1.9h-5.1v3.8h4.7v1.9h-4.7v4h5.4V106z"/>
			<path d="M60.2,105.4v-2.3c0.2,0.2,0.5,0.4,0.7,0.5c0.3,0.2,0.6,0.3,0.9,0.4c0.3,0.1,0.6,0.2,1,0.2s0.6,0.1,0.9,0.1
				c0.9,0,1.6-0.2,2.1-0.5c0.5-0.3,0.7-0.8,0.7-1.4c0-0.3-0.1-0.6-0.2-0.8c-0.2-0.2-0.4-0.5-0.6-0.6c-0.3-0.2-0.6-0.4-1-0.6
				c-0.4-0.2-0.8-0.4-1.2-0.6c-0.5-0.2-0.9-0.5-1.3-0.7s-0.7-0.5-1-0.8c-0.3-0.3-0.5-0.7-0.7-1s-0.3-0.8-0.3-1.4
				c0-0.6,0.1-1.2,0.4-1.7c0.3-0.5,0.7-0.9,1.1-1.2c0.5-0.3,1-0.5,1.6-0.7c0.6-0.1,1.2-0.2,1.8-0.2c1.4,0,2.5,0.2,3.1,0.5v2.2
				c-0.8-0.6-1.8-0.8-3-0.8c-0.3,0-0.7,0-1,0.1c-0.3,0.1-0.6,0.2-0.9,0.3c-0.3,0.1-0.5,0.3-0.6,0.6c-0.2,0.2-0.2,0.5-0.2,0.8
				c0,0.3,0.1,0.6,0.2,0.8c0.1,0.2,0.3,0.4,0.6,0.6c0.2,0.2,0.5,0.4,0.9,0.5c0.3,0.2,0.8,0.4,1.2,0.6c0.5,0.2,0.9,0.5,1.3,0.8
				c0.4,0.3,0.8,0.6,1.1,0.9c0.3,0.3,0.6,0.7,0.8,1.1c0.2,0.4,0.3,0.9,0.3,1.4c0,0.7-0.1,1.3-0.4,1.7c-0.3,0.5-0.7,0.9-1.1,1.2
				s-1,0.5-1.6,0.6c-0.6,0.1-1.3,0.2-1.9,0.2c-0.2,0-0.5,0-0.8-0.1c-0.3,0-0.7-0.1-1-0.2c-0.3-0.1-0.7-0.1-1-0.2
				C60.6,105.7,60.4,105.5,60.2,105.4z"/>
			<path d="M73.8,106h-2.3V92.4h2.3V106z"/>
			<path d="M87.9,105c-1.4,0.8-3,1.2-4.7,1.2c-2,0-3.6-0.6-4.9-1.9s-1.9-2.9-1.9-5c0-2.1,0.7-3.8,2-5.2c1.4-1.3,3.1-2,5.2-2
				c1.5,0,2.8,0.2,3.8,0.7v2.3c-1-0.7-2.3-1-3.7-1c-1.4,0-2.6,0.5-3.5,1.4c-0.9,1-1.4,2.2-1.4,3.7c0,1.6,0.4,2.8,1.2,3.7
				c0.8,0.9,1.9,1.3,3.2,1.3c0.9,0,1.7-0.2,2.4-0.5v-3.2h-2.9v-1.9h5.1V105z"/>
			<path d="M102.4,106H100l-6.5-10c-0.2-0.3-0.3-0.5-0.4-0.8h-0.1c0.1,0.3,0.1,0.9,0.1,1.9v8.9H91V92.4h2.6l6.3,9.7
				c0.3,0.4,0.4,0.7,0.5,0.8h0c-0.1-0.4-0.1-1-0.1-1.8v-8.7h2.2V106z"/>
		</g>
	</g>
</g>
</svg>
