<?xml version="1.0" encoding="utf-8"?>
<!-- Generator: Adobe Illustrator 22.0.1, SVG Export Plug-In . SVG Version: 6.00 Build 0)  -->
<svg version="1.1" id="图层_1" xmlns="http://www.w3.org/2000/svg" xmlns:xlink="http://www.w3.org/1999/xlink" x="0px" y="0px"
	 viewBox="0 0 140 140" style="enable-background:new 0 0 140 140;" xml:space="preserve">
<style type="text/css">
	.st0{fill:none;stroke:#1B1B1B;}
	.st1{fill:#1B1B1B;}
	.st2{fill:none;}
	.st3{fill:none;stroke:#222222;stroke-width:2;}
</style>
<g>
	<path class="st0" d="M69.6,12.2H130v117.4H10V12.2H69.6"/>
	<ellipse id="circlePath" class="st1" cx="69.6" cy="12.2" rx="2.7" ry="2.6"/>
	<g id="loopBase">
		<path id="loopBasePath" class="st2" d="M69.6,12.2H130v117.4H10V12.2H69.6"/>
	</g>
	<path id="drawingPath" class="st3" d="M69.6,12.2c0.5,0,60.4,0,60.4,0v117.4H10V12.2H69.6"/>
	<g>
		<g>
			<path d="M64.1,60.8h-4V45.5c0-1.2,0.1-2.8,0.2-4.6h-0.1c-0.2,1-0.5,1.8-0.7,2.2l-7.2,17.6h-2.8l-7.2-17.5
				c-0.2-0.5-0.4-1.3-0.6-2.3h-0.1c0.1,0.9,0.1,2.5,0.1,4.6v15.2h-3.7V37.2h5.6l6.3,15.7c0.5,1.2,0.8,2.1,0.9,2.7h0.1
				c0.4-1.2,0.7-2.2,1-2.8l6.4-15.6h5.4V60.8z"/>
			<path d="M74.3,60.8h-4.1V37.2h4.1V60.8z"/>
			<path d="M100.9,60.8h-4.4L85.1,43.5c-0.3-0.4-0.5-0.9-0.7-1.4h-0.1c0.1,0.5,0.1,1.6,0.1,3.2v15.4h-3.9V37.2h4.6l11.1,16.9
				c0.5,0.7,0.8,1.2,0.9,1.4h0.1c-0.1-0.6-0.2-1.7-0.2-3.2V37.2h3.8V60.8z"/>
		</g>
		<g>
			<path d="M55.6,69.4L52.1,82h-2.4l-2.5-8.8c-0.1-0.4-0.2-0.8-0.2-1.2h0c0,0.4-0.1,0.8-0.2,1.2L44.3,82h-2.5l-3.6-12.6h2.3l2.3,9.2
				c0.1,0.4,0.2,0.8,0.2,1.2h0c0-0.3,0.1-0.7,0.3-1.2l2.6-9.2h2.2l2.4,9.3c0.1,0.3,0.1,0.7,0.2,1.1h0c0-0.3,0.1-0.7,0.2-1.2l2.3-9.3
				H55.6z"/>
			<path d="M64.8,82h-7.2V69.4h7v1.8h-4.8v3.6h4.4v1.8h-4.4v3.7h5.1V82z"/>
			<path d="M67.3,82V69.4h4.1c1.2,0,2.2,0.3,3,0.8c0.7,0.5,1.1,1.2,1.1,2.1c0,0.7-0.2,1.3-0.6,1.9c-0.4,0.5-1,0.9-1.7,1.1v0
				c0.9,0.1,1.6,0.4,2.1,1c0.5,0.5,0.8,1.2,0.8,2.1c0,1.1-0.4,2-1.3,2.6s-2,1-3.3,1H67.3z M69.4,71.1v3.6h1.4c0.7,0,1.3-0.2,1.8-0.5
				c0.4-0.3,0.6-0.8,0.6-1.5c0-1.1-0.7-1.6-2.2-1.6H69.4z M69.4,76.4v4h1.8c0.8,0,1.4-0.2,1.8-0.5c0.4-0.4,0.7-0.9,0.7-1.5
				c0-1.3-0.9-2-2.8-2H69.4z"/>
			<path d="M97.8,82.1l-1.2-1.2c-0.3,0.2-0.5,0.4-0.9,0.6c-0.3,0.2-0.6,0.3-1,0.5c-0.4,0.1-0.7,0.2-1.1,0.3
				c-0.4,0.1-0.8,0.1-1.1,0.1c-0.6,0-1.2-0.1-1.8-0.2s-1-0.4-1.3-0.7c-0.4-0.3-0.7-0.7-0.9-1.1c-0.2-0.4-0.3-0.9-0.3-1.4
				c0-1.4,1-2.7,3-3.7c-0.9-1.1-1.4-2.1-1.4-2.9c0-0.4,0.1-0.8,0.3-1.2c0.2-0.4,0.4-0.7,0.7-1c0.3-0.3,0.7-0.5,1.1-0.6
				c0.4-0.2,0.9-0.2,1.4-0.2c0.5,0,0.9,0.1,1.4,0.2c0.4,0.1,0.8,0.3,1,0.6c0.3,0.2,0.5,0.5,0.7,0.9c0.2,0.3,0.2,0.7,0.2,1.1
				c0,0.4,0,0.7-0.1,1c-0.1,0.3-0.3,0.6-0.5,0.9c-0.2,0.3-0.5,0.5-0.9,0.8c-0.4,0.2-0.8,0.5-1.3,0.7c0.5,0.5,1,1,1.4,1.5
				c0.5,0.5,1,1,1.5,1.5c0.1-0.2,0.2-0.4,0.3-0.6c0.1-0.2,0.2-0.5,0.3-0.7c0.1-0.3,0.1-0.5,0.2-0.8c0-0.3,0.1-0.5,0.1-0.8h1.8
				c0,1.6-0.5,3-1.6,4.2c0.3,0.3,0.6,0.6,1,1c0.4,0.4,0.9,0.9,1.5,1.5H97.8z M95.6,79.7c-0.7-0.7-1.8-1.9-3.3-3.4
				c-0.7,0.3-1.1,0.7-1.4,1.1s-0.4,0.8-0.4,1.3c0,0.3,0.1,0.6,0.2,0.8c0.1,0.2,0.3,0.5,0.5,0.6c0.2,0.2,0.4,0.3,0.7,0.4
				c0.3,0.1,0.6,0.1,0.9,0.1C93.8,80.7,94.8,80.4,95.6,79.7z M94.9,72.1c0-0.2,0-0.4-0.1-0.5c-0.1-0.2-0.2-0.3-0.3-0.4
				c-0.1-0.1-0.3-0.2-0.4-0.3c-0.2-0.1-0.3-0.1-0.5-0.1c-0.3,0-0.5,0-0.7,0.1c-0.2,0.1-0.4,0.2-0.5,0.3c-0.1,0.1-0.3,0.3-0.3,0.5
				c-0.1,0.2-0.1,0.4-0.1,0.6c0,0.5,0.4,1.2,1.2,2.1C94.3,73.7,94.9,72.9,94.9,72.1z"/>
		</g>
		<g>
			<path d="M38.2,103.6V90.9H42c4.8,0,7.1,2.1,7.1,6.2c0,1.9-0.7,3.5-2,4.7c-1.3,1.2-3.1,1.8-5.3,1.8H38.2z M40.4,92.7v9.1h1.7
				c1.5,0,2.7-0.4,3.5-1.2s1.3-2,1.3-3.4c0-3-1.6-4.4-4.7-4.4H40.4z"/>
			<path d="M58.8,103.6h-7.2V90.9h7v1.8h-4.8v3.6h4.4v1.8h-4.4v3.7h5.1V103.6z"/>
			<path d="M60.7,103.1v-2.2c0.2,0.2,0.4,0.3,0.7,0.5c0.3,0.1,0.6,0.3,0.9,0.4c0.3,0.1,0.6,0.2,0.9,0.2c0.3,0.1,0.6,0.1,0.8,0.1
				c0.9,0,1.6-0.1,2-0.4c0.4-0.3,0.7-0.7,0.7-1.3c0-0.3-0.1-0.6-0.2-0.8c-0.1-0.2-0.4-0.4-0.6-0.6c-0.3-0.2-0.6-0.4-0.9-0.5
				c-0.4-0.2-0.7-0.3-1.1-0.5c-0.4-0.2-0.8-0.5-1.2-0.7c-0.4-0.2-0.7-0.5-1-0.8c-0.3-0.3-0.5-0.6-0.7-1c-0.2-0.4-0.2-0.8-0.2-1.3
				c0-0.6,0.1-1.1,0.4-1.5c0.3-0.4,0.6-0.8,1.1-1.1c0.4-0.3,1-0.5,1.5-0.6c0.6-0.1,1.2-0.2,1.7-0.2c1.4,0,2.3,0.1,3,0.4v2.1
				c-0.7-0.5-1.7-0.8-2.8-0.8c-0.3,0-0.6,0-0.9,0.1c-0.3,0.1-0.6,0.2-0.8,0.3c-0.2,0.1-0.5,0.3-0.6,0.5c-0.2,0.2-0.2,0.5-0.2,0.8
				c0,0.3,0.1,0.5,0.2,0.7c0.1,0.2,0.3,0.4,0.5,0.6c0.2,0.2,0.5,0.3,0.8,0.5c0.3,0.2,0.7,0.3,1.2,0.5c0.5,0.2,0.9,0.5,1.3,0.7
				c0.4,0.3,0.8,0.5,1.1,0.8c0.3,0.3,0.5,0.6,0.7,1c0.2,0.4,0.3,0.8,0.3,1.3c0,0.6-0.1,1.2-0.4,1.6s-0.6,0.8-1.1,1.1
				c-0.4,0.3-1,0.5-1.5,0.6c-0.6,0.1-1.2,0.2-1.8,0.2c-0.2,0-0.5,0-0.8,0c-0.3,0-0.6-0.1-1-0.1c-0.3-0.1-0.6-0.1-0.9-0.2
				C61.1,103.3,60.9,103.2,60.7,103.1z"/>
			<path d="M73.7,103.6h-2.2V90.9h2.2V103.6z"/>
			<path d="M87.1,102.7c-1.3,0.7-2.8,1.1-4.5,1.1c-1.9,0-3.5-0.6-4.6-1.7s-1.8-2.7-1.8-4.6c0-2,0.6-3.6,1.9-4.8
				c1.3-1.3,2.9-1.9,4.9-1.9c1.4,0,2.6,0.2,3.6,0.6v2.2c-1-0.6-2.2-1-3.5-1c-1.4,0-2.5,0.4-3.4,1.3c-0.9,0.9-1.3,2-1.3,3.4
				c0,1.4,0.4,2.6,1.1,3.4c0.8,0.8,1.8,1.2,3.1,1.2c0.9,0,1.7-0.2,2.3-0.5v-3h-2.7v-1.8h4.9V102.7z"/>
			<path d="M100.9,103.6h-2.3l-6.2-9.3c-0.2-0.2-0.3-0.5-0.4-0.7H92c0,0.3,0.1,0.8,0.1,1.7v8.3H90V90.9h2.5l6,9.1
				c0.3,0.4,0.4,0.6,0.5,0.8h0c-0.1-0.3-0.1-0.9-0.1-1.7v-8.1h2.1V103.6z"/>
		</g>
	</g>
</g>
</svg>
