<?xml version="1.0" encoding="utf-8"?>
<!-- Generator: Adobe Illustrator 22.0.1, SVG Export Plug-In . SVG Version: 6.00 Build 0)  -->
<svg version="1.1" id="图层_1" xmlns="http://www.w3.org/2000/svg" xmlns:xlink="http://www.w3.org/1999/xlink" x="0px" y="0px"
	 viewBox="0 0 220 16" style="enable-background:new 0 0 180.4 16.1;" xml:space="preserve">
<g>
	<path d="M3.6,15.6L0,0.4h3.1l2.3,10.4L8.2,0.4h3.6l2.7,10.6l2.3-10.6h3.1l-3.7,15.2H13L10,4.3L7,15.6H3.6z"/>
	<path d="M21.5,15.6V0.4h11.3V3h-8.2v3.4h7.6v2.6h-7.6v4.1h8.5v2.6H21.5z"/>
	<path d="M35.7,0.4h6.1c1.2,0,2.1,0.1,2.7,0.2C45,0.7,45.5,0.9,46,1.2s0.9,0.7,1.2,1.3c0.3,0.5,0.5,1.1,0.5,1.8c0,0.7-0.2,1.4-0.6,2
		c-0.4,0.6-0.9,1-1.6,1.3c0.9,0.3,1.6,0.7,2.1,1.4c0.5,0.6,0.7,1.4,0.7,2.3c0,0.7-0.2,1.4-0.5,2c-0.3,0.7-0.8,1.2-1.3,1.6
		c-0.6,0.4-1.2,0.6-2.1,0.7c-0.5,0.1-1.7,0.1-3.7,0.1h-5.2V0.4z M38.7,3v3.5h2c1.2,0,1.9,0,2.2-0.1c0.5-0.1,0.9-0.2,1.2-0.5
		c0.3-0.3,0.5-0.7,0.5-1.2c0-0.5-0.1-0.9-0.4-1.1C44,3.3,43.6,3.1,43.1,3C42.8,3,41.9,3,40.5,3H38.7z M38.7,9v4.1h2.8
		c1.1,0,1.8,0,2.1-0.1c0.5-0.1,0.8-0.3,1.1-0.6s0.4-0.8,0.4-1.3c0-0.5-0.1-0.8-0.3-1.2c-0.2-0.3-0.5-0.5-1-0.7
		C43.5,9.1,42.6,9,41.2,9H38.7z"/>
	<path d="M56.8,15.6V0.4h4.6l2.8,10.4l2.7-10.4h4.6v15.2h-2.8v-12l-3,12h-3l-3-12v12H56.8z"/>
	<path d="M74.5,15.6V0.4h3.1v15.2H74.5z"/>
	<path d="M80.5,15.6V0.4h3l6.2,10.1V0.4h2.8v15.2h-3.1l-6.1-9.9v9.9H80.5z"/>
	<path d="M101.7,0.4h5.6c1.3,0,2.2,0.1,2.9,0.3c0.9,0.3,1.7,0.7,2.3,1.4c0.6,0.7,1.1,1.5,1.5,2.5c0.3,1,0.5,2.2,0.5,3.6
		c0,1.3-0.2,2.3-0.5,3.2c-0.4,1.1-0.9,2-1.6,2.7c-0.5,0.5-1.3,0.9-2.2,1.2c-0.7,0.2-1.6,0.3-2.7,0.3h-5.8V0.4z M104.7,3v10.1h2.3
		c0.9,0,1.5,0,1.9-0.1c0.5-0.1,0.9-0.3,1.2-0.6c0.3-0.3,0.6-0.8,0.8-1.5c0.2-0.7,0.3-1.6,0.3-2.8c0-1.2-0.1-2.1-0.3-2.7
		c-0.2-0.6-0.5-1.1-0.9-1.5c-0.4-0.4-0.8-0.6-1.4-0.7c-0.4-0.1-1.3-0.1-2.5-0.1H104.7z"/>
	<path d="M117,15.6V0.4h11.3V3h-8.2v3.4h7.6v2.6h-7.6v4.1h8.5v2.6H117z"/>
	<path d="M130.4,10.7l3-0.3c0.2,1,0.5,1.7,1.1,2.2s1.3,0.7,2.2,0.7c1,0,1.7-0.2,2.2-0.6s0.8-0.9,0.8-1.5c0-0.4-0.1-0.7-0.3-0.9
		c-0.2-0.3-0.6-0.5-1.1-0.7c-0.4-0.1-1.2-0.3-2.5-0.7c-1.6-0.4-2.8-0.9-3.5-1.5c-0.9-0.8-1.4-1.9-1.4-3.1c0-0.8,0.2-1.5,0.7-2.2
		c0.4-0.7,1.1-1.2,1.9-1.5c0.8-0.4,1.8-0.5,3-0.5c1.9,0,3.3,0.4,4.3,1.3s1.5,2,1.5,3.3l-3.1,0.1c-0.1-0.8-0.4-1.3-0.8-1.7
		s-1.1-0.5-1.9-0.5c-0.9,0-1.6,0.2-2.1,0.5c-0.3,0.2-0.5,0.5-0.5,0.9c0,0.4,0.2,0.7,0.5,0.9c0.4,0.3,1.3,0.7,2.8,1
		c1.5,0.4,2.6,0.7,3.3,1.1c0.7,0.4,1.3,0.9,1.7,1.5c0.4,0.7,0.6,1.5,0.6,2.4c0,0.9-0.2,1.7-0.7,2.4s-1.2,1.3-2.1,1.7
		c-0.9,0.4-2,0.6-3.3,0.6c-1.9,0-3.4-0.4-4.4-1.3C131.2,13.7,130.6,12.4,130.4,10.7z"/>
	<path d="M145.2,15.6V0.4h3.1v15.2H145.2z"/>
	<path d="M158.3,10.1V7.5h6.6v6.1c-0.6,0.6-1.6,1.2-2.8,1.6c-1.2,0.5-2.5,0.7-3.7,0.7c-1.6,0-3-0.3-4.2-1c-1.2-0.7-2.1-1.6-2.7-2.9
		c-0.6-1.2-0.9-2.6-0.9-4c0-1.6,0.3-3,1-4.2s1.6-2.2,2.9-2.8c1-0.5,2.2-0.8,3.6-0.8c1.9,0,3.4,0.4,4.4,1.2c1.1,0.8,1.7,1.9,2,3.3
		l-3,0.6c-0.2-0.7-0.6-1.3-1.2-1.8c-0.6-0.4-1.3-0.6-2.2-0.6c-1.3,0-2.4,0.4-3.2,1.3s-1.2,2.1-1.2,3.8c0,1.8,0.4,3.2,1.2,4.1
		c0.8,0.9,1.9,1.4,3.2,1.4c0.6,0,1.3-0.1,1.9-0.4c0.6-0.3,1.2-0.6,1.7-0.9v-1.9H158.3z"/>
	<path d="M167.7,15.6V0.4h3l6.2,10.1V0.4h2.8v15.2h-3.1l-6.1-9.9v9.9H167.7z"/>
</g>
</svg>
