<svg xmlns="http://www.w3.org/2000/svg" width="100%" height="100%" version="1.1" viewBox="0 0 140 140">
    <desc>
        Created with Snap
    </desc>
    <defs/>
    <path fill="none" stroke="#1b1b1b" d="M70,3.5h67.5v134H3.5V3.5H70" style=""/>
    <circle id="circlePath" cx="70" cy="3.5" r="3" fill="#1b1b1b" style="" transform="matrix(1,0,0,1,0,0)"/>
    <g id="loopBase">
        <path id="loopBasePath" fill="none" d="M70,3.5h67.5v134H3.5V3.5H70" style=""/>
    </g>
    <g id="rideLogo">
        <g id="rideLogo1">
            <path d="M279,347.4h-19.3v-76c0-6.2,0.4-13.8,1.1-22.8h-0.3c-1.2,5.1-2.3,8.8-3.2,11.1l-35,87.8h-13.4l-35.1-87.1 c-1-2.6-2-6.5-3.1-11.7h-0.3c0.4,4.7,0.7,12.4,0.7,23v75.8h-18V230h27.4l30.9,78.2c2.3,6,3.9,10.5,4.6,13.4h0.4 c2-6.2,3.7-10.8,4.9-13.8l31.4-77.9H279V347.4z"/>
            <path d="M59.8,63.2h-4.3V37.6h4.3V63.2z"/>
            <path d="M70.3,59.1V41.7h4.5  c1.9,0,3.5,0.3,4.6,0.9c1.2,0.6,2.1,1.4,2.8,2.3c0.7,0.9,1.1,1.8,1.4,2.8c0.3,1,0.4,1.9,0.4,2.7c0,1.5-0.3,2.7-0.8,3.8  c-0.5,1.1-1.3,2-2.1,2.7c-0.9,0.7-2,1.3-3.2,1.6c-1.2,0.4-2.5,0.5-3.9,0.5H70.3z M80.5,62.1c1.7-0.7,3.2-1.7,4.4-2.9  c1.2-1.2,2.1-2.6,2.7-4.1c0.6-1.5,0.9-3.1,0.9-4.8c0-0.8-0.1-1.7-0.3-2.6C88,46.9,87.8,46,87.4,45c-0.4-0.9-0.9-1.9-1.6-2.7  c-0.7-0.9-1.5-1.7-2.5-2.4c-1-0.7-2.2-1.2-3.5-1.6c-1.3-0.4-2.9-0.6-4.7-0.6H66v25.6h8.5C76.7,63.2,78.8,62.8,80.5,62.1z"/>
            <path d="M111.2,63.2H93.7V37.6h16.8v4.1H98v6.4h11.7v4.1H98v7h13.2V63.2z"/>
        </g>
        <g id="rideLogo2">
            <path d="M44.7,70.5H48v15h-2.4V74.7l-4.3,10.8h-1.6l-4.3-10.8v10.8H33v-15  h3.2l4.3,10.6L44.7,70.5z"/>
            <path d="M52.6,72.9v3.8h6.9V79h-6.9v4.1h7.7v2.4H50.1v-15H60v2.4H52.6z"/>
            <path d="M65,72.9h2.7  c1.1,0,2,0.2,2.7,0.6c0.7,0.4,1.3,0.8,1.6,1.3c0.4,0.5,0.7,1.1,0.8,1.7C73,77.1,73,77.6,73,78c0,0.9-0.2,1.6-0.5,2.3  c-0.3,0.6-0.7,1.2-1.3,1.6s-1.2,0.8-1.8,1c-0.7,0.2-1.5,0.3-2.3,0.3H65V72.9z M71,84.9c1-0.4,1.9-1,2.6-1.7c0.7-0.7,1.2-1.5,1.6-2.4  c0.3-0.9,0.5-1.8,0.5-2.8c0-0.5-0.1-1-0.2-1.5c-0.1-0.5-0.3-1.1-0.5-1.7c-0.2-0.5-0.5-1.1-0.9-1.6c-0.4-0.5-0.9-1-1.5-1.4  c-0.6-0.4-1.3-0.7-2.1-1c-0.8-0.2-1.7-0.3-2.8-0.3h-5.3v15h5C68.8,85.5,70,85.3,71,84.9z"/>
            <path d="M77.8,70.5h2.5v15h-2.5V70.5z"/>
            <path d="M87.5,79.7l2.4-5.7  l2.3,5.7H87.5z M85.2,85.5l1.4-3.6h6.5l1.5,3.6h2.9l-6.4-15h-2.1l-6.6,15H85.2z"/>
            <path d="M103.4,75.2  c-0.1-0.2-0.2-0.4-0.3-0.6c-0.1-0.2-0.1-0.4-0.1-0.6c0-0.5,0.1-0.8,0.4-1.1c0.3-0.3,0.6-0.4,1-0.4c0.4,0,0.7,0.1,0.9,0.3  c0.2,0.2,0.3,0.5,0.3,0.9c0,0.3-0.1,0.6-0.2,0.8c-0.1,0.2-0.3,0.4-0.4,0.6c-0.2,0.2-0.4,0.4-0.6,0.5L104,76  c-0.1-0.1-0.2-0.2-0.3-0.3C103.6,75.6,103.5,75.4,103.4,75.2z M103,79.2l0.5-0.4l2.7,3.3l-0.4,0.5c-0.2,0.2-0.4,0.4-0.6,0.6  c-0.2,0.2-0.4,0.3-0.7,0.4c-0.5,0.2-1,0.2-1.5,0c-0.2-0.1-0.5-0.3-0.7-0.5c-0.2-0.2-0.4-0.4-0.5-0.7c-0.1-0.3-0.2-0.6-0.2-0.9  c0-0.3,0.1-0.6,0.2-0.9c0.1-0.3,0.3-0.5,0.4-0.7C102.5,79.5,102.8,79.3,103,79.2z M108.8,77.3l-1.4,2.8l-2-2.5  c0.2-0.2,0.5-0.3,0.7-0.5c0.3-0.3,0.6-0.5,0.9-0.8c0.3-0.3,0.5-0.7,0.6-1.1c0.2-0.4,0.3-0.9,0.3-1.3c0-0.6-0.1-1.1-0.3-1.5  c-0.2-0.4-0.4-0.8-0.8-1.1c-0.3-0.3-0.7-0.5-1.1-0.7c-0.8-0.3-1.8-0.3-2.7,0c-0.4,0.2-0.8,0.4-1.1,0.7s-0.6,0.7-0.8,1.2  c-0.2,0.5-0.3,1-0.3,1.5c0,0.8,0.2,1.4,0.5,2c0.2,0.4,0.5,0.9,0.8,1.3c-0.3,0.2-0.6,0.4-0.8,0.6c-0.4,0.3-0.7,0.6-0.9,1  c-0.3,0.4-0.5,0.8-0.6,1.2c-0.2,0.4-0.2,0.9-0.2,1.5c0,0.6,0.1,1.1,0.3,1.6c0.2,0.5,0.4,1,0.8,1.4c0.3,0.4,0.8,0.8,1.3,1  c0.6,0.3,1.2,0.4,1.9,0.4c0.9,0,1.6-0.2,2.3-0.6c0.5-0.4,1.1-0.9,1.5-1.5l1.4,1.8h2.9l-3-3.7l2.5-4.5H108.8z"/>
        </g>
        <g id="rideLogo3">
            <path d="M35.5,94.2h2.7  c1.1,0,2,0.2,2.7,0.6c0.7,0.4,1.2,0.8,1.6,1.3c0.4,0.5,0.7,1.1,0.8,1.7c0.2,0.6,0.2,1.1,0.2,1.6c0,0.8-0.2,1.6-0.5,2.2  c-0.3,0.6-0.7,1.2-1.3,1.6c-0.5,0.4-1.1,0.7-1.8,1c-0.7,0.2-1.5,0.3-2.3,0.3h-2.2V94.2z M45.6,96.2c-0.2-0.6-0.5-1.1-0.9-1.6  c-0.4-0.5-0.9-1-1.5-1.4c-0.6-0.4-1.3-0.7-2.1-1c-0.8-0.3-1.7-0.4-2.8-0.4H33v15h5c1.3,0,2.5-0.2,3.5-0.6c1-0.4,1.9-1,2.6-1.7  c0.7-0.7,1.2-1.5,1.6-2.4c0.3-0.9,0.5-1.8,0.5-2.8c0-0.5,0-1-0.1-1.5C46,97.3,45.8,96.7,45.6,96.2z"/>
            <path d="M51.8,104.4h7.7v2.4H49.3v-15h9.9v2.4h-7.4V98h6.9v2.4h-6.9V104.4z"/>
            <path d="M68.7,103.6c0.2-0.2,0.2-0.5,0.2-0.9c0-0.5-0.1-0.8-0.4-1.1  c-0.3-0.3-0.7-0.5-1.2-0.7c-0.5-0.2-1.1-0.4-1.7-0.6c-0.6-0.2-1.3-0.5-1.8-0.8c-0.6-0.4-1-0.8-1.4-1.4c-0.4-0.6-0.6-1.4-0.6-2.4  c0-0.5,0.1-0.9,0.3-1.4c0.2-0.5,0.5-1,0.9-1.4c0.4-0.4,1-0.8,1.6-1.1c0.7-0.3,1.4-0.4,2.3-0.4c0.8,0,1.6,0.1,2.3,0.3  c0.8,0.2,1.5,0.7,2,1.4l0.2,0.2l-2,1.8L69.3,95c-0.2-0.4-0.5-0.6-0.9-0.8c-0.4-0.2-0.9-0.3-1.4-0.3c-0.5,0-0.9,0.1-1.3,0.2  c-0.3,0.1-0.6,0.3-0.8,0.5c-0.2,0.2-0.3,0.4-0.4,0.6c-0.1,0.2-0.1,0.5-0.1,0.6c0,0.5,0.1,0.9,0.4,1.2c0.3,0.3,0.7,0.5,1.2,0.7  c0.5,0.2,1.1,0.4,1.7,0.5c0.7,0.2,1.2,0.4,1.8,0.7c0.6,0.3,1,0.7,1.4,1.3c0.4,0.5,0.6,1.3,0.6,2.2c0,0.7-0.1,1.4-0.4,2  c-0.3,0.6-0.7,1.1-1.1,1.5c-0.5,0.4-1,0.7-1.7,0.9c-0.6,0.2-1.3,0.3-2,0.3c-1,0-1.9-0.2-2.7-0.5c-0.9-0.3-1.6-0.9-2.1-1.6l-0.1-0.2  l2-1.8l0.2,0.3c0.3,0.5,0.7,0.8,1.2,1.1c0.8,0.4,1.6,0.5,2.5,0.2c0.3-0.1,0.6-0.2,0.9-0.4C68.4,104.1,68.6,103.8,68.7,103.6z"/>
            <path d="M74.8,91.8h2.5v15h-2.5V91.8z"/>
            <path d="M88.4,98.2h5.7v7.6l-0.1,0.1c-0.4,0.2-0.8,0.4-1.2,0.6  c-0.5,0.2-1,0.3-1.4,0.4c-0.5,0.1-1,0.2-1.5,0.3c-0.5,0.1-1,0.1-1.4,0.1c-1.3,0-2.4-0.2-3.4-0.6c-1-0.4-1.8-1-2.5-1.7  c-0.7-0.7-1.2-1.6-1.6-2.5c-0.3-1-0.5-2-0.5-3c0-1.1,0.2-2.2,0.6-3.1c0.4-1,0.9-1.8,1.6-2.5c0.7-0.7,1.5-1.3,2.5-1.7  c1-0.4,2-0.6,3.2-0.6c1.4,0,2.5,0.2,3.4,0.5c0.9,0.3,1.6,0.8,2.2,1.4l0.2,0.2l-1.8,1.9L92,95.3c-0.6-0.5-1.2-0.9-1.8-1.1  c-0.6-0.2-1.3-0.3-2-0.3c-0.8,0-1.5,0.1-2.1,0.4c-0.6,0.3-1.2,0.7-1.6,1.2c-0.5,0.5-0.8,1.1-1.1,1.7c-0.2,0.7-0.4,1.4-0.4,2.2  c0,0.8,0.1,1.5,0.4,2.2c0.3,0.7,0.7,1.3,1.1,1.8c0.5,0.5,1,0.9,1.7,1.1c0.7,0.3,1.4,0.4,2.1,0.4c0.7,0,1.3-0.1,1.9-0.2  c0.5-0.1,1-0.3,1.3-0.5v-3.6h-3.2V98.2z"/>
            <path d="M108.5,91.8h2.5v15h-2.9l-7.7-11.3v11.3h-2.5v-15h3l7.6,11.3V91.8z"/>
        </g>
    </g>
    <path id="drawingPath" fill="none" stroke="#222222" d="M70.003,3.5C70.526,3.5,137.5,3.5,137.5,3.5C137.5,3.5,137.5,137.5,137.5,137.5C137.5,137.5,3.5,137.5,3.5,137.5C3.5,137.5,3.5,3.5,3.5,3.5C3.5,3.5,70,3.5,70,3.5" style="stroke-width: 2;"/>
</svg>
